<?xml version="1.0" encoding="UTF-8" standalone="no"?>
<!-- Created with Inkscape (http://www.inkscape.org/) -->

<svg
   xmlns:dc="http://purl.org/dc/elements/1.1/"
   xmlns:cc="http://creativecommons.org/ns#"
   xmlns:rdf="http://www.w3.org/1999/02/22-rdf-syntax-ns#"
   xmlns:svg="http://www.w3.org/2000/svg"
   xmlns="http://www.w3.org/2000/svg"
   xmlns:sodipodi="http://sodipodi.sourceforge.net/DTD/sodipodi-0.dtd"
   xmlns:inkscape="http://www.inkscape.org/namespaces/inkscape"
   width="200mm"
   height="200mm"
   viewBox="0 0 200 200"
   version="1.1"
   id="svg8"
   sodipodi:docname="boilerplate.svg"
   inkscape:version="0.92.3 (2405546, 2018-03-11)">
  <defs
     id="defs2" />
  <sodipodi:namedview
     id="base"
     pagecolor="#ffffff"
     bordercolor="#666666"
     borderopacity="1.0"
     inkscape:pageopacity="0.0"
     inkscape:pageshadow="2"
     inkscape:zoom="1.4"
     inkscape:cx="405.71429"
     inkscape:cy="381.63884"
     inkscape:document-units="mm"
     inkscape:current-layer="layer1"
     showgrid="false"
     showguides="true"
     inkscape:guide-bbox="true"
     inkscape:window-width="2560"
     inkscape:window-height="1376"
     inkscape:window-x="0"
     inkscape:window-y="27"
     inkscape:window-maximized="1" />
  <metadata
     id="metadata5">
    <rdf:RDF>
      <cc:Work
         rdf:about="">
        <dc:format>image/svg+xml</dc:format>
        <dc:type
           rdf:resource="http://purl.org/dc/dcmitype/StillImage" />
        <dc:title></dc:title>
      </cc:Work>
    </rdf:RDF>
  </metadata>
  <g
     inkscape:label="Layer 1"
     inkscape:groupmode="layer"
     id="layer1"
     transform="translate(0,-97)">
    <path
       style="fill:#000080;stroke-width:1.61567581"
       d="M 377.95312 75.589844 A 302.3622 302.3622 0 0 0 75.589844 377.95312 A 302.3622 302.3622 0 0 0 243.54688 648.39844 L 241.25781 286.44141 C 241.12783 265.88282 244.54807 247.06986 251.12695 230.00586 C 257.70584 212.94186 266.95663 198.44766 278.88086 186.52344 C 291.01068 174.39361 305.60789 165.03985 322.67188 158.46094 C 339.73586 151.67646 358.7544 148.28516 379.72461 148.28516 C 399.46128 148.28516 416.52467 151.26639 430.91602 157.22852 C 445.30732 163.19061 457.12929 170.79726 466.38086 180.04883 C 475.63242 189.30039 482.41503 199.47625 486.73242 210.57812 C 491.25542 221.47439 493.51758 231.95929 493.51758 242.0332 C 493.51758 253.75182 491.56442 263.92967 487.6582 272.56445 C 483.75199 281.19928 478.8176 288.80589 472.85547 295.38477 C 467.09895 301.75807 460.72641 307.51456 453.73633 312.6543 C 446.95185 317.58843 440.57932 322.41983 434.61719 327.14844 C 428.86066 331.67144 424.02926 336.50284 420.12305 341.64258 C 416.21683 346.57671 414.26367 352.23021 414.26367 358.60352 C 414.26367 366.41591 416.72989 372.89151 421.66406 378.03125 C 426.59824 383.17103 432.66372 388.00243 439.85938 392.52539 C 447.26063 396.84278 455.1743 401.36518 463.60352 406.09375 C 472.2383 410.82235 480.15396 416.68183 487.34961 423.67188 C 494.75087 430.45635 500.91938 438.98806 505.85352 449.26758 C 510.78769 459.34149 513.25391 472.08855 513.25391 487.50781 C 513.25391 502.92708 510.47869 516.7022 504.92773 528.83203 C 499.58239 540.96186 492.18174 551.34373 482.72461 559.97852 C 473.26744 568.40773 462.16458 574.88325 449.41797 579.40625 C 436.6714 583.72364 422.89819 585.88281 408.0957 585.88281 C 390.20935 585.88281 373.76199 582.49151 358.75391 575.70703 C 343.74582 568.92255 330.68977 560.18484 319.58789 549.49414 L 332.23242 528.83203 C 333.87714 526.15934 335.7273 524.10319 337.7832 522.66406 C 340.04469 521.22493 342.92294 520.50586 346.41797 520.50586 C 350.11859 520.50586 353.81891 521.944 357.51953 524.82227 C 361.22015 527.49496 365.53849 530.57918 370.47266 534.07422 C 375.61241 537.36365 381.47191 540.44791 388.05078 543.32617 C 394.83526 545.99883 403.05796 547.33594 412.7207 547.33594 C 420.32757 547.33594 427.21508 546.10185 433.38281 543.63477 C 439.55051 540.96207 444.79198 537.3648 449.10938 532.8418 C 453.42677 528.11323 456.717 522.66379 458.97852 516.49609 C 461.24 510.12279 462.37109 503.33823 462.37109 496.14258 C 462.37109 485.04071 459.80185 476.09893 454.66211 469.31445 C 449.52233 462.32437 443.04486 456.36187 435.23242 451.42773 C 427.41999 446.28799 418.99127 441.55958 409.94531 437.24219 C 400.89935 432.9248 392.47064 427.99037 384.6582 422.43945 C 376.84578 416.68293 370.37022 409.69236 365.23047 401.46875 C 360.09071 393.03953 357.51953 382.24567 357.51953 369.08789 C 357.51953 358.39719 359.5757 349.24941 363.6875 341.64258 C 367.7993 333.83014 372.93971 326.83957 379.10742 320.67188 C 385.27513 314.29857 391.95669 308.4391 399.15234 303.09375 C 406.5536 297.7484 413.33816 292.19793 419.50586 286.44141 C 425.67356 280.47928 430.81204 274.00372 434.92383 267.01367 C 439.03565 260.02362 441.0918 251.69594 441.0918 242.0332 C 441.0918 235.6599 439.9607 229.28737 437.69922 222.91406 C 435.4377 216.54076 431.7374 210.78427 426.59766 205.64453 C 421.45788 200.50479 414.87937 196.28944 406.86133 193 C 398.84332 189.71056 389.0775 188.06641 377.56445 188.06641 C 365.02345 188.06641 353.7165 190.22558 343.64258 194.54297 C 333.56866 198.65475 324.93394 204.9243 317.73828 213.35352 C 310.74822 221.57713 305.30074 231.959 301.39453 244.5 C 297.48832 256.83543 295.53516 271.3296 295.53516 287.98242 L 297.95117 669.19922 A 302.3622 302.3622 0 0 0 377.95312 680.31445 A 302.3622 302.3622 0 0 0 680.31445 377.95312 A 302.3622 302.3622 0 0 0 377.95312 75.589844 z "
       transform="matrix(0.26458333,0,0,0.26458333,0,97)"
       id="path14" />
    <g
       aria-label="ß"
       style="font-style:normal;font-weight:normal;font-size:34.8132782px;line-height:1.25;font-family:sans-serif;letter-spacing:0px;word-spacing:0px;fill:#ffff00;fill-opacity:1;stroke:none;stroke-width:0.87033194"
       id="text12"
       transform="translate(1.0583333)" />
  </g>
</svg>
