<?xml version="1.0" encoding="UTF-8" standalone="no"?>
<svg
   xmlns:dc="http://purl.org/dc/elements/1.1/"
   xmlns:cc="http://creativecommons.org/ns#"
   xmlns:rdf="http://www.w3.org/1999/02/22-rdf-syntax-ns#"
   xmlns:svg="http://www.w3.org/2000/svg"
   xmlns="http://www.w3.org/2000/svg"
   xmlns:sodipodi="http://sodipodi.sourceforge.net/DTD/sodipodi-0.dtd"
   xmlns:inkscape="http://www.inkscape.org/namespaces/inkscape"
   inkscape:version="1.0beta2 (unknown)"
   sodipodi:docname="simplepay_logo.svg"
   viewBox="0 0 140 60"
   height="60"
   width="140"
   xml:space="preserve"
   id="svg2"
   version="1.1"><metadata
     id="metadata8"><rdf:RDF><cc:Work
         rdf:about=""><dc:format>image/svg+xml</dc:format><dc:type
           rdf:resource="http://purl.org/dc/dcmitype/StillImage" /><dc:title /></cc:Work></rdf:RDF></metadata><defs
     id="defs6"><clipPath
       id="clipPath18"
       clipPathUnits="userSpaceOnUse"><path
         inkscape:connector-curvature="0"
         id="path16"
         d="M 0,283.46 H 283.46 V 0 H 0 Z" /></clipPath><radialGradient
       id="radialGradient128"
       spreadMethod="pad"
       gradientTransform="matrix(10.140432,0,0,-10.140432,54.509697,171.4613)"
       gradientUnits="userSpaceOnUse"
       r="1"
       cy="0"
       cx="0"
       fy="0"
       fx="0"><stop
         id="stop120"
         offset="0"
         style="stop-opacity:1;stop-color:#4dbf5e" /><stop
         id="stop122"
         offset="0.27392702"
         style="stop-opacity:1;stop-color:#4dbf5e" /><stop
         id="stop124"
         offset="0.730769"
         style="stop-opacity:1;stop-color:#59caf5" /><stop
         id="stop126"
         offset="1"
         style="stop-opacity:1;stop-color:#59caf5" /></radialGradient><radialGradient
       id="radialGradient150"
       spreadMethod="pad"
       gradientTransform="matrix(14.407984,0,0,-14.407984,53.87706,160.9566)"
       gradientUnits="userSpaceOnUse"
       r="1"
       cy="0"
       cx="0"
       fy="0"
       fx="0"><stop
         id="stop144"
         offset="0"
         style="stop-opacity:1;stop-color:#b3e5e4" /><stop
         id="stop146"
         offset="0.96863558"
         style="stop-opacity:1;stop-color:#40c1f3" /><stop
         id="stop148"
         offset="1"
         style="stop-opacity:1;stop-color:#40c1f3" /></radialGradient><radialGradient
       id="radialGradient172"
       spreadMethod="pad"
       gradientTransform="matrix(10.350149,7.2813067,5.3412342,-7.5913472,55.46312,172.13737)"
       gradientUnits="userSpaceOnUse"
       r="1"
       cy="0"
       cx="0"
       fy="0"
       fx="0"><stop
         id="stop166"
         offset="0"
         style="stop-opacity:1;stop-color:#4dbf5c" /><stop
         id="stop168"
         offset="0.37484762"
         style="stop-opacity:1;stop-color:#4dbf5c" /><stop
         id="stop170"
         offset="1"
         style="stop-opacity:1;stop-color:#5ac1ea" /></radialGradient><clipPath
       id="clipPath182"
       clipPathUnits="userSpaceOnUse"><path
         inkscape:connector-curvature="0"
         id="path180"
         d="M 0,283.46 H 283.46 V 0 H 0 Z" /></clipPath><clipPath
       id="clipPath190"
       clipPathUnits="userSpaceOnUse"><path
         inkscape:connector-curvature="0"
         id="path188"
         d="M 43.3378,176.164 H 74.0639 V 147.467 H 43.3378 Z" /></clipPath><clipPath
       id="clipPath194"
       clipPathUnits="userSpaceOnUse"><path
         inkscape:connector-curvature="0"
         id="path192"
         d="M 43.3379,176.165 H 74.064 V 147.466 H 43.3379 Z" /></clipPath><linearGradient
       id="linearGradient204"
       spreadMethod="pad"
       gradientTransform="matrix(-15.904507,0.6914868,0.6914868,15.904507,54.853027,149.1958)"
       gradientUnits="userSpaceOnUse"
       y2="0"
       x2="1"
       y1="0"
       x1="0"><stop
         id="stop200"
         offset="0"
         style="stop-opacity:1;stop-color:#ffffff" /><stop
         id="stop202"
         offset="1"
         style="stop-opacity:1;stop-color:#231f20" /></linearGradient><linearGradient
       id="linearGradient214"
       spreadMethod="pad"
       gradientTransform="matrix(-15.905148,0.6915147,0.6915147,15.905148,55.252441,158.34863)"
       gradientUnits="userSpaceOnUse"
       y2="0"
       x2="1"
       y1="0"
       x1="0"><stop
         id="stop210"
         offset="0"
         style="stop-opacity:1;stop-color:#ffffff" /><stop
         id="stop212"
         offset="1"
         style="stop-opacity:1;stop-color:#231f20" /></linearGradient><linearGradient
       id="linearGradient224"
       spreadMethod="pad"
       gradientTransform="matrix(-15.905148,0.6915147,0.6915147,15.905148,55.252441,158.34863)"
       gradientUnits="userSpaceOnUse"
       y2="0"
       x2="1"
       y1="0"
       x1="0"><stop
         id="stop220"
         offset="0"
         style="stop-opacity:1;stop-color:#ffffff" /><stop
         id="stop222"
         offset="1"
         style="stop-opacity:1;stop-color:#231f20" /></linearGradient><linearGradient
       id="linearGradient234"
       spreadMethod="pad"
       gradientTransform="matrix(-15.88107,0.6904678,0.6904678,15.88107,55.164551,156.54395)"
       gradientUnits="userSpaceOnUse"
       y2="0"
       x2="1"
       y1="0"
       x1="0"><stop
         id="stop230"
         offset="0"
         style="stop-opacity:1;stop-color:#ffffff" /><stop
         id="stop232"
         offset="1"
         style="stop-opacity:1;stop-color:#231f20" /></linearGradient><linearGradient
       id="linearGradient244"
       spreadMethod="pad"
       gradientTransform="matrix(-15.904486,0.6914859,0.6914859,15.904486,55.21875,157.60986)"
       gradientUnits="userSpaceOnUse"
       y2="0"
       x2="1"
       y1="0"
       x1="0"><stop
         id="stop240"
         offset="0"
         style="stop-opacity:1;stop-color:#ffffff" /><stop
         id="stop242"
         offset="1"
         style="stop-opacity:1;stop-color:#231f20" /></linearGradient><linearGradient
       id="linearGradient254"
       spreadMethod="pad"
       gradientTransform="matrix(-15.903845,0.691458,0.691458,15.903845,55.20166,157.20361)"
       gradientUnits="userSpaceOnUse"
       y2="0"
       x2="1"
       y1="0"
       x1="0"><stop
         id="stop250"
         offset="0"
         style="stop-opacity:1;stop-color:#ffffff" /><stop
         id="stop252"
         offset="1"
         style="stop-opacity:1;stop-color:#231f20" /></linearGradient><linearGradient
       id="linearGradient264"
       spreadMethod="pad"
       gradientTransform="matrix(-15.903845,0.691458,0.691458,15.903845,55.20166,157.20361)"
       gradientUnits="userSpaceOnUse"
       y2="0"
       x2="1"
       y1="0"
       x1="0"><stop
         id="stop260"
         offset="0"
         style="stop-opacity:1;stop-color:#ffffff" /><stop
         id="stop262"
         offset="1"
         style="stop-opacity:1;stop-color:#231f20" /></linearGradient><linearGradient
       id="linearGradient274"
       spreadMethod="pad"
       gradientTransform="matrix(-15.904146,0.6914711,0.6914711,15.904146,55.168457,156.44238)"
       gradientUnits="userSpaceOnUse"
       y2="0"
       x2="1"
       y1="0"
       x1="0"><stop
         id="stop270"
         offset="0"
         style="stop-opacity:1;stop-color:#ffffff" /><stop
         id="stop272"
         offset="1"
         style="stop-opacity:1;stop-color:#231f20" /></linearGradient><linearGradient
       id="linearGradient284"
       spreadMethod="pad"
       gradientTransform="matrix(-15.904749,0.6914973,0.6914973,15.904749,55.706055,168.7915)"
       gradientUnits="userSpaceOnUse"
       y2="0"
       x2="1"
       y1="0"
       x1="0"><stop
         id="stop280"
         offset="0"
         style="stop-opacity:1;stop-color:#ffffff" /><stop
         id="stop282"
         offset="1"
         style="stop-opacity:1;stop-color:#231f20" /></linearGradient><linearGradient
       id="linearGradient294"
       spreadMethod="pad"
       gradientTransform="matrix(-15.90417,0.6914721,0.6914721,15.90417,55.399902,161.75732)"
       gradientUnits="userSpaceOnUse"
       y2="0"
       x2="1"
       y1="0"
       x1="0"><stop
         id="stop290"
         offset="0"
         style="stop-opacity:1;stop-color:#ffffff" /><stop
         id="stop292"
         offset="1"
         style="stop-opacity:1;stop-color:#231f20" /></linearGradient><mask
       id="mask296"
       height="1"
       width="1"
       y="0"
       x="0"
       maskUnits="userSpaceOnUse"><g
         id="g410"><g
           id="g408"
           opacity="0.699997"
           clip-path="url(#clipPath190)"><path
             inkscape:connector-curvature="0"
             id="path298"
             style="fill:#000000;fill-opacity:1;fill-rule:nonzero;stroke:none"
             d="M 43.338,176.165 H 74.064 V 147.467 H 43.338 Z" /><g
             id="g406"><g
               id="g300" /><g
               id="g404"><g
                 id="g402"
                 clip-path="url(#clipPath194)"><g
                   id="g310"><g
                     id="g308"><g
                       id="g306"><g
                         id="g304"><path
                           inkscape:connector-curvature="0"
                           id="path302"
                           style="fill:url(#linearGradient204);stroke:none"
                           d="m 58.174,147.588 c -2.906,0.451 -5.713,1.596 -8.124,3.279 2.317,-1.749 5.097,-2.914 8.124,-3.279" /></g></g></g></g><g
                   id="g320"><g
                     id="g318"><g
                       id="g316"><g
                         id="g314"><path
                           inkscape:connector-curvature="0"
                           id="path312"
                           style="fill:url(#linearGradient214);stroke:none"
                           d="m 47.743,157.631 c 0.442,-0.316 0.903,-0.556 1.377,-0.735 -1.537,0.694 -2.731,1.963 -3.525,3.592 0.253,-0.603 0.593,-1.165 1.041,-1.671 0.323,-0.44 0.694,-0.84 1.107,-1.186" /></g></g></g></g><g
                   id="g330"><g
                     id="g328"><g
                       id="g326"><g
                         id="g324"><path
                           inkscape:connector-curvature="0"
                           id="path322"
                           style="fill:url(#linearGradient224);stroke:none"
                           d="m 47.743,157.631 c 0.442,-0.316 0.903,-0.556 1.377,-0.735 -1.537,0.694 -2.731,1.963 -3.525,3.592 0.253,-0.603 0.593,-1.165 1.041,-1.671 0.323,-0.44 0.694,-0.84 1.107,-1.186" /></g></g></g></g><g
                   id="g340"><g
                     id="g338"><g
                       id="g336"><g
                         id="g334"><path
                           inkscape:connector-curvature="0"
                           id="path332"
                           style="fill:url(#linearGradient234);stroke:none"
                           d="m 49.12,156.896 c 0.159,-0.072 0.319,-0.151 0.49,-0.2 -0.168,0.06 -0.331,0.128 -0.49,0.2" /></g></g></g></g><g
                   id="g350"><g
                     id="g348"><g
                       id="g346"><g
                         id="g344"><path
                           inkscape:connector-curvature="0"
                           id="path342"
                           style="fill:url(#linearGradient244);stroke:none"
                           d="m 57.679,158.201 c 4.846,2.271 12.239,0.823 16.385,-3.489 -4.146,4.312 -11.624,5.93 -16.385,3.489" /></g></g></g></g><g
                   id="g360"><g
                     id="g358"><g
                       id="g356"><g
                         id="g354"><path
                           inkscape:connector-curvature="0"
                           id="path352"
                           style="fill:url(#linearGradient254);stroke:none"
                           d="m 57.679,158.201 c -4.118,-1.93 -6.021,-2.102 -8.069,-1.505 1.689,-0.599 3.224,-0.977 8.069,1.505" /></g></g></g></g><g
                   id="g370"><g
                     id="g368"><g
                       id="g366"><g
                         id="g364"><path
                           inkscape:connector-curvature="0"
                           id="path362"
                           style="fill:url(#linearGradient264);stroke:none"
                           d="m 57.679,158.201 c -4.118,-1.93 -6.021,-2.102 -8.069,-1.505 1.689,-0.599 3.224,-0.977 8.069,1.505" /></g></g></g></g><g
                   id="g380"><g
                     id="g378"><g
                       id="g376"><g
                         id="g374"><path
                           inkscape:connector-curvature="0"
                           id="path372"
                           style="fill:url(#linearGradient274);stroke:none"
                           d="m 57.679,158.201 c -4.845,-2.482 -6.38,-2.104 -8.069,-1.505 -0.171,0.049 -0.331,0.128 -0.49,0.2 -0.474,0.179 -0.935,0.419 -1.377,0.735 -0.413,0.346 -0.784,0.746 -1.107,1.186 -0.448,0.506 -0.788,1.068 -1.041,1.671 -0.723,1.485 -1.114,3.27 -1.124,5.192 -0.545,-1.178 -0.89,-2.329 -1.008,-3.406 0.569,-4.651 3.028,-8.718 6.587,-11.407 2.411,-1.683 5.218,-2.828 8.124,-3.279 0.668,-0.079 1.347,-0.122 2.036,-0.122 3.238,0 6.265,0.913 8.833,2.496 1.984,1.221 3.693,2.843 5.021,4.75 -4.146,4.312 -11.539,5.76 -16.385,3.489" /></g></g></g></g><g
                   id="g390"><g
                     id="g388"><g
                       id="g386"><g
                         id="g384"><path
                           inkscape:connector-curvature="0"
                           id="path382"
                           style="fill:url(#linearGradient284);stroke:none"
                           d="m 45.428,171.153 c 0.686,1.93 1.674,3.628 2.845,5.012 -0.389,-0.373 -0.765,-0.759 -1.128,-1.152 -2.38,-2.908 -3.807,-6.624 -3.807,-10.674 0,-0.699 0.043,-1.389 0.125,-2.065 0.118,1.077 0.463,2.228 1.008,3.406 -0.009,1.751 0.297,3.616 0.957,5.473" /></g></g></g></g><g
                   id="g400"><g
                     id="g398"><g
                       id="g396"><g
                         id="g394"><path
                           inkscape:connector-curvature="0"
                           id="path392"
                           style="fill:url(#linearGradient294);stroke:none"
                           d="m 57.679,158.201 c -4.845,-2.482 -6.38,-2.104 -8.069,-1.505 -0.171,0.049 -0.331,0.128 -0.49,0.2 -0.474,0.179 -0.935,0.419 -1.377,0.735 -0.413,0.346 -0.784,0.746 -1.107,1.186 -0.448,0.506 -0.788,1.068 -1.041,1.671 -0.723,1.485 -1.114,3.27 -1.124,5.192 -0.009,1.751 0.297,3.616 0.957,5.473 0.686,1.93 1.674,3.628 2.845,5.012 -0.389,-0.373 -0.765,-0.759 -1.128,-1.152 -2.38,-2.908 -3.807,-6.624 -3.807,-10.674 0,-0.699 0.043,-1.389 0.125,-2.065 0.569,-4.651 3.028,-8.718 6.587,-11.407 2.411,-1.683 5.218,-2.828 8.124,-3.279 0.668,-0.079 1.347,-0.122 2.036,-0.122 3.238,0 6.265,0.913 8.833,2.496 1.984,1.221 3.693,2.843 5.021,4.75 -4.146,4.312 -11.539,5.76 -16.385,3.489" /></g></g></g></g></g></g></g></g></g></mask><clipPath
       id="clipPath418"
       clipPathUnits="userSpaceOnUse"><path
         inkscape:connector-curvature="0"
         id="path416"
         d="M 43.3378,176.164 H 74.0639 V 147.467 H 43.3378 Z" /></clipPath><radialGradient
       id="radialGradient428"
       spreadMethod="pad"
       gradientTransform="matrix(26.406031,0,0,-26.406031,49.652821,158.6235)"
       gradientUnits="userSpaceOnUse"
       r="1"
       cy="0"
       cx="0"
       fy="0"
       fx="0"><stop
         id="stop424"
         offset="0"
         style="stop-opacity:1;stop-color:#59caf5" /><stop
         id="stop426"
         offset="1"
         style="stop-opacity:1;stop-color:#269bd4" /></radialGradient><radialGradient
       id="radialGradient438"
       spreadMethod="pad"
       gradientTransform="matrix(26.406719,0,0,-26.406719,49.653908,158.62206)"
       gradientUnits="userSpaceOnUse"
       r="1"
       cy="0"
       cx="0"
       fy="0"
       fx="0"><stop
         id="stop434"
         offset="0"
         style="stop-opacity:1;stop-color:#59caf5" /><stop
         id="stop436"
         offset="1"
         style="stop-opacity:1;stop-color:#269bd4" /></radialGradient><radialGradient
       id="radialGradient448"
       spreadMethod="pad"
       gradientTransform="matrix(26.406719,0,0,-26.406719,49.653908,158.62206)"
       gradientUnits="userSpaceOnUse"
       r="1"
       cy="0"
       cx="0"
       fy="0"
       fx="0"><stop
         id="stop444"
         offset="0"
         style="stop-opacity:1;stop-color:#59caf5" /><stop
         id="stop446"
         offset="1"
         style="stop-opacity:1;stop-color:#269bd4" /></radialGradient><radialGradient
       id="radialGradient458"
       spreadMethod="pad"
       gradientTransform="matrix(26.281338,0,0,-26.281338,49.653057,158.61383)"
       gradientUnits="userSpaceOnUse"
       r="1"
       cy="0"
       cx="0"
       fy="0"
       fx="0"><stop
         id="stop454"
         offset="0"
         style="stop-opacity:1;stop-color:#59caf5" /><stop
         id="stop456"
         offset="1"
         style="stop-opacity:1;stop-color:#269bd4" /></radialGradient><radialGradient
       id="radialGradient468"
       spreadMethod="pad"
       gradientTransform="matrix(26.404043,0,0,-26.404043,49.652798,158.62235)"
       gradientUnits="userSpaceOnUse"
       r="1"
       cy="0"
       cx="0"
       fy="0"
       fx="0"><stop
         id="stop464"
         offset="0"
         style="stop-opacity:1;stop-color:#59caf5" /><stop
         id="stop466"
         offset="1"
         style="stop-opacity:1;stop-color:#269bd4" /></radialGradient><radialGradient
       id="radialGradient478"
       spreadMethod="pad"
       gradientTransform="matrix(26.401882,0,0,-26.401882,49.653153,158.62161)"
       gradientUnits="userSpaceOnUse"
       r="1"
       cy="0"
       cx="0"
       fy="0"
       fx="0"><stop
         id="stop474"
         offset="0"
         style="stop-opacity:1;stop-color:#59caf5" /><stop
         id="stop476"
         offset="1"
         style="stop-opacity:1;stop-color:#269bd4" /></radialGradient><radialGradient
       id="radialGradient488"
       spreadMethod="pad"
       gradientTransform="matrix(26.401882,0,0,-26.401882,49.653153,158.62161)"
       gradientUnits="userSpaceOnUse"
       r="1"
       cy="0"
       cx="0"
       fy="0"
       fx="0"><stop
         id="stop484"
         offset="0"
         style="stop-opacity:1;stop-color:#59caf5" /><stop
         id="stop486"
         offset="1"
         style="stop-opacity:1;stop-color:#269bd4" /></radialGradient><radialGradient
       id="radialGradient498"
       spreadMethod="pad"
       gradientTransform="matrix(26.403505,0,0,-26.403505,49.6534,158.62262)"
       gradientUnits="userSpaceOnUse"
       r="1"
       cy="0"
       cx="0"
       fy="0"
       fx="0"><stop
         id="stop494"
         offset="0"
         style="stop-opacity:1;stop-color:#59caf5" /><stop
         id="stop496"
         offset="1"
         style="stop-opacity:1;stop-color:#269bd4" /></radialGradient><radialGradient
       id="radialGradient508"
       spreadMethod="pad"
       gradientTransform="matrix(26.402618,0,0,-26.402618,49.653568,158.62366)"
       gradientUnits="userSpaceOnUse"
       r="1"
       cy="0"
       cx="0"
       fy="0"
       fx="0"><stop
         id="stop504"
         offset="0"
         style="stop-opacity:1;stop-color:#59caf5" /><stop
         id="stop506"
         offset="1"
         style="stop-opacity:1;stop-color:#269bd4" /></radialGradient><radialGradient
       id="radialGradient518"
       spreadMethod="pad"
       gradientTransform="matrix(26.403627,0,0,-26.403627,49.653278,158.62265)"
       gradientUnits="userSpaceOnUse"
       r="1"
       cy="0"
       cx="0"
       fy="0"
       fx="0"><stop
         id="stop514"
         offset="0"
         style="stop-opacity:1;stop-color:#59caf5" /><stop
         id="stop516"
         offset="1"
         style="stop-opacity:1;stop-color:#2aabe8" /></radialGradient><clipPath
       id="clipPath630"
       clipPathUnits="userSpaceOnUse"><path
         inkscape:connector-curvature="0"
         id="path628"
         d="M 52.7366,169.974 H 77.1562 V 147.467 H 52.7366 Z" /></clipPath><clipPath
       id="clipPath634"
       clipPathUnits="userSpaceOnUse"><path
         inkscape:connector-curvature="0"
         id="path632"
         d="M 52.7368,169.974 H 77.1567 V 147.466 H 52.7368 Z" /></clipPath><clipPath
       id="clipPath638"
       clipPathUnits="userSpaceOnUse"><path
         inkscape:connector-curvature="0"
         id="path636"
         d="M 52.7368,169.974 H 77.1562 V 147.466 H 52.7368 Z" /></clipPath><linearGradient
       id="linearGradient648"
       spreadMethod="pad"
       gradientTransform="matrix(38.793526,12.402381,12.402381,-38.793526,67.53418,158.19092)"
       gradientUnits="userSpaceOnUse"
       y2="0"
       x2="1"
       y1="0"
       x1="0"><stop
         id="stop644"
         offset="0"
         style="stop-opacity:1;stop-color:#ffffff" /><stop
         id="stop646"
         offset="1"
         style="stop-opacity:1;stop-color:#231f20" /></linearGradient><mask
       id="mask650"
       height="1"
       width="1"
       y="0"
       x="0"
       maskUnits="userSpaceOnUse"><g
         id="g682"><g
           id="g680"
           opacity="0.949997"
           clip-path="url(#clipPath630)"><path
             inkscape:connector-curvature="0"
             id="path652"
             style="fill:#000000;fill-opacity:1;fill-rule:nonzero;stroke:none"
             d="m 52.737,169.974 h 24.42 v -22.508 h -24.42 z" /><g
             id="g678"><g
               id="g654" /><g
               id="g676"><g
                 id="g674"
                 clip-path="url(#clipPath634)"><g
                   id="g672"><g
                     id="g656" /><g
                     id="g670"><g
                       id="g668"
                       opacity="0.850006"
                       clip-path="url(#clipPath638)"><g
                         id="g666"><g
                           id="g664"><g
                             id="g662"><g
                               id="g660"><path
                                 inkscape:connector-curvature="0"
                                 id="path658"
                                 style="fill:url(#linearGradient648);stroke:none"
                                 d="m 64.66,159.249 c -2.289,-7.101 -4.143,-8.222 -6.361,-9.277 -0.213,-0.118 -0.444,-0.197 -0.67,-0.282 -0.631,-0.285 -1.311,-0.498 -2.044,-0.621 -0.736,-0.067 -1.481,-0.036 -2.224,0.077 -0.21,0.012 -0.418,0.035 -0.624,0.063 2.253,-1.115 4.791,-1.743 7.473,-1.743 3.238,0 6.265,0.913 8.833,2.496 4.41,2.714 7.473,7.399 7.966,12.829 0.027,0.292 0.102,1.225 0.114,1.376 0.005,0.046 0.007,0.092 0.01,0.139 0.008,0.107 0.013,0.214 0.018,0.319 0.001,0.05 0.002,0.1 0.004,0.15 0.002,0.109 0.002,0.219 0,0.327 0,0.04 0,0.079 -0.003,0.12 -0.003,0.148 -0.01,0.297 -0.022,0.444 0,0.002 -10e-4,0.005 -10e-4,0.007 -0.011,0.144 -0.027,0.286 -0.046,0.429 -0.004,0.036 -0.009,0.072 -0.014,0.108 -0.017,0.111 -0.033,0.22 -0.054,0.329 -0.006,0.037 -0.014,0.075 -0.021,0.112 -0.022,0.118 -0.047,0.234 -0.076,0.349 -0.004,0.023 -0.01,0.046 -0.015,0.069 -0.04,0.162 -0.051,0.256 -0.091,0.388 -0.023,0.122 -0.065,0.2 -0.121,0.397 -0.288,0.787 -0.681,1.502 -1.166,2.12 -5.016,-2.201 -9.236,-6.222 -10.865,-10.725" /></g></g></g></g></g></g></g></g></g></g></g></g></mask><clipPath
       id="clipPath690"
       clipPathUnits="userSpaceOnUse"><path
         inkscape:connector-curvature="0"
         id="path688"
         d="M 52.7366,169.974 H 77.1562 V 147.467 H 52.7366 Z" /></clipPath><radialGradient
       id="radialGradient700"
       spreadMethod="pad"
       gradientTransform="matrix(14.904861,14.904861,14.904861,-14.904861,64.451302,161.03447)"
       gradientUnits="userSpaceOnUse"
       r="1"
       cy="0"
       cx="0"
       fy="0"
       fx="0"><stop
         id="stop696"
         offset="0"
         style="stop-opacity:1;stop-color:#bfdf14" /><stop
         id="stop698"
         offset="1"
         style="stop-opacity:1;stop-color:#33b652" /></radialGradient><clipPath
       id="clipPath722"
       clipPathUnits="userSpaceOnUse"><path
         inkscape:connector-curvature="0"
         id="path720"
         d="M 43.3378,181.211 H 67.8425 V 155.206 H 43.3378 Z" /></clipPath><clipPath
       id="clipPath726"
       clipPathUnits="userSpaceOnUse"><path
         inkscape:connector-curvature="0"
         id="path724"
         d="M 43.3379,181.211 H 68.0264 V 155.207 H 43.3379 Z" /></clipPath><linearGradient
       id="linearGradient736"
       spreadMethod="pad"
       gradientTransform="matrix(24.504682,0,0,-24.504682,43.337891,168.20898)"
       gradientUnits="userSpaceOnUse"
       y2="0"
       x2="1"
       y1="0"
       x1="0"><stop
         id="stop732"
         offset="0"
         style="stop-opacity:1;stop-color:#ffffff" /><stop
         id="stop734"
         offset="1"
         style="stop-opacity:1;stop-color:#231f20" /></linearGradient><linearGradient
       id="linearGradient746"
       spreadMethod="pad"
       gradientTransform="matrix(24.504682,0,0,-24.504682,43.337891,168.20898)"
       gradientUnits="userSpaceOnUse"
       y2="0"
       x2="1"
       y1="0"
       x1="0"><stop
         id="stop742"
         offset="0"
         style="stop-opacity:1;stop-color:#ffffff" /><stop
         id="stop744"
         offset="1"
         style="stop-opacity:1;stop-color:#231f20" /></linearGradient><mask
       id="mask748"
       height="1"
       width="1"
       y="0"
       x="0"
       maskUnits="userSpaceOnUse"><g
         id="g782"><g
           id="g780"
           clip-path="url(#clipPath722)"><path
             inkscape:connector-curvature="0"
             id="path750"
             style="fill:#000000;fill-opacity:1;fill-rule:nonzero;stroke:none"
             d="M 43.338,181.211 H 68.026 V 155.207 H 43.338 Z" /><g
             id="g778"><g
               id="g752" /><g
               id="g776"><g
                 id="g774"
                 clip-path="url(#clipPath726)"><g
                   id="g762"><g
                     id="g760"><g
                       id="g758"><g
                         id="g756"><path
                           inkscape:connector-curvature="0"
                           id="path754"
                           style="fill:url(#linearGradient736);stroke:none"
                           d="m 54.087,177.13 c 2.045,0.922 4.315,1.435 6.704,1.435 0.318,0 0.632,-0.013 0.945,-0.031 0.67,-0.064 2.18,-0.105 3.754,-0.796 0.5,-0.219 0.901,-0.462 1.217,-0.69 0.312,-0.206 0.582,-0.45 0.804,-0.722 0.053,-0.068 0.103,-0.137 0.152,-0.206 0.007,0.023 0.02,0.045 0.028,0.068 0.335,0.917 0.096,1.924 -0.544,2.713 -0.229,0.281 -0.508,0.533 -0.83,0.745 -0.326,0.236 -0.739,0.485 -1.254,0.712 -1.626,0.715 -3.184,0.756 -3.876,0.822 -0.323,0.019 -0.649,0.031 -0.977,0.031 -2.465,0 -4.808,-0.529 -6.919,-1.48 -5.868,-2.642 -9.953,-8.54 -9.953,-15.392 0,-3.365 0.985,-6.5 2.683,-9.132 -1.01,2.125 -1.576,4.502 -1.576,7.011 0,6.639 3.956,12.354 9.642,14.912" /></g></g></g></g><g
                   id="g772"><g
                     id="g770"><g
                       id="g768"><g
                         id="g766"><path
                           inkscape:connector-curvature="0"
                           id="path764"
                           style="fill:url(#linearGradient746);stroke:none"
                           d="m 54.087,177.13 c 2.045,0.922 4.315,1.435 6.704,1.435 0.318,0 0.632,-0.013 0.945,-0.031 0.67,-0.064 2.18,-0.105 3.754,-0.796 0.5,-0.219 0.901,-0.462 1.217,-0.69 0.312,-0.206 0.582,-0.45 0.804,-0.722 0.053,-0.068 0.103,-0.137 0.152,-0.206 0.007,0.023 0.02,0.045 0.028,0.068 0.335,0.917 0.096,1.924 -0.544,2.713 -0.229,0.281 -0.508,0.533 -0.83,0.745 -0.326,0.236 -0.739,0.485 -1.254,0.712 -1.626,0.715 -3.184,0.756 -3.876,0.822 -0.323,0.019 -0.649,0.031 -0.977,0.031 -2.465,0 -4.808,-0.529 -6.919,-1.48 -5.868,-2.642 -9.953,-8.54 -9.953,-15.392 0,-3.365 0.985,-6.5 2.683,-9.132 -1.01,2.125 -1.576,4.502 -1.576,7.011 0,6.639 3.956,12.354 9.642,14.912" /></g></g></g></g></g></g></g></g></g></mask><clipPath
       id="clipPath790"
       clipPathUnits="userSpaceOnUse"><path
         inkscape:connector-curvature="0"
         id="path788"
         d="M 43.3378,181.211 H 67.8425 V 155.206 H 43.3378 Z" /></clipPath><radialGradient
       id="radialGradient800"
       spreadMethod="pad"
       gradientTransform="matrix(22.679129,0,0,-22.679129,51.789783,177.3779)"
       gradientUnits="userSpaceOnUse"
       r="1"
       cy="0"
       cx="0"
       fy="0"
       fx="0"><stop
         id="stop796"
         offset="0"
         style="stop-opacity:1;stop-color:#ffffff" /><stop
         id="stop798"
         offset="1"
         style="stop-opacity:1;stop-color:#4cc1f0" /></radialGradient><radialGradient
       id="radialGradient812"
       spreadMethod="pad"
       gradientTransform="matrix(22.679129,0,0,-22.679129,51.789783,177.3779)"
       gradientUnits="userSpaceOnUse"
       r="1"
       cy="0"
       cx="0"
       fy="0"
       fx="0"><stop
         id="stop806"
         offset="0"
         style="stop-opacity:1;stop-color:#4dbf5e" /><stop
         id="stop808"
         offset="0.37484762"
         style="stop-opacity:1;stop-color:#4dbf5e" /><stop
         id="stop810"
         offset="1"
         style="stop-opacity:1;stop-color:#59caf5" /></radialGradient><radialGradient
       id="radialGradient866"
       spreadMethod="pad"
       gradientTransform="matrix(16.525442,0,0,16.525442,225.51462,116.83517)"
       gradientUnits="userSpaceOnUse"
       r="1"
       cy="0"
       cx="0"
       fy="0"
       fx="0"><stop
         id="stop850"
         offset="0"
         style="stop-opacity:1;stop-color:#96d7f5" /><stop
         id="stop852"
         offset="0.0711"
         style="stop-opacity:1;stop-color:#92d6f5" /><stop
         id="stop854"
         offset="0.1575"
         style="stop-opacity:1;stop-color:#86d3f5" /><stop
         id="stop856"
         offset="0.2516"
         style="stop-opacity:1;stop-color:#72cbf1" /><stop
         id="stop858"
         offset="0.3514"
         style="stop-opacity:1;stop-color:#5fc2ee" /><stop
         id="stop860"
         offset="0.4546"
         style="stop-opacity:1;stop-color:#4eb3e7" /><stop
         id="stop862"
         offset="0.5"
         style="stop-opacity:1;stop-color:#48abe4" /><stop
         id="stop864"
         offset="1"
         style="stop-opacity:1;stop-color:#4177c4" /></radialGradient><clipPath
       id="clipPath876"
       clipPathUnits="userSpaceOnUse"><path
         inkscape:connector-curvature="0"
         id="path874"
         d="M 0,283.46 H 283.46 V 0 H 0 Z" /></clipPath></defs><sodipodi:namedview
     inkscape:current-layer="g10"
     inkscape:window-maximized="1"
     inkscape:window-y="0"
     inkscape:window-x="5120"
     inkscape:cy="44.027345"
     inkscape:cx="75.331751"
     inkscape:zoom="31.221861"
     showgrid="false"
     id="namedview4"
     inkscape:window-height="1403"
     inkscape:window-width="2560"
     inkscape:pageshadow="2"
     inkscape:pageopacity="0"
     guidetolerance="10"
     gridtolerance="10"
     objecttolerance="10"
     borderopacity="1"
     inkscape:document-rotation="0"
     bordercolor="#666666"
     pagecolor="#ffffff" /><g
     transform="matrix(1.3333333,0,0,-1.3333333,0,377.94667)"
     inkscape:label="simplepay_otp_bankcard_en_top"
     inkscape:groupmode="layer"
     id="g10"><g
       transform="matrix(0.45766914,0,0,0.45766914,-13.996465,195.77632)"
       id="g12"><g
         clip-path="url(#clipPath18)"
         id="g14"><g
           transform="translate(94.2344,167.6167)"
           id="g20"><path
             inkscape:connector-curvature="0"
             id="path22"
             style="fill:#59c134;fill-opacity:1;fill-rule:nonzero;stroke:none"
             d="m 0,0 c -0.931,0 -2.827,1.448 -4.446,1.448 -0.898,0 -1.693,-0.414 -1.693,-1.379 0,-2.312 8.624,-1.97 8.624,-7.619 0,-3.313 -2.796,-5.827 -7.068,-5.827 -2.795,0 -6.931,1.586 -6.931,3.826 0,0.759 0.756,2.208 2.139,2.208 1.93,0 2.791,-1.692 5.135,-1.692 1.518,0 1.965,0.484 1.965,1.416 0,2.274 -8.618,1.931 -8.618,7.619 0,3.45 2.789,5.794 6.723,5.794 2.444,0 6.204,-1.141 6.204,-3.588 C 2.034,1.068 1.174,0 0,0" /></g><g
           transform="translate(99.3628,170.4151)"
           id="g24"><path
             inkscape:connector-curvature="0"
             id="path26"
             style="fill:#59c134;fill-opacity:1;fill-rule:nonzero;stroke:none"
             d="M 0,0 C 0,1.654 1.031,2.753 2.481,2.753 3.931,2.753 4.963,1.654 4.963,0 V -13.242 C 4.963,-14.897 3.931,-16 2.481,-16 1.031,-16 0,-14.897 0,-13.242 Z m 5.049,7.249 c 0,-1.427 -1.14,-2.634 -2.568,-2.634 -1.367,0 -2.568,1.236 -2.568,2.634 0,1.299 1.201,2.504 2.568,2.504 1.363,0 2.568,-1.174 2.568,-2.504" /></g><g
           transform="translate(106.9966,170.4463)"
           id="g28"><path
             inkscape:connector-curvature="0"
             id="path30"
             style="fill:#59c134;fill-opacity:1;fill-rule:nonzero;stroke:none"
             d="m 0,0 c 0,1.653 1.034,2.757 2.481,2.757 1.277,0 2.102,-0.691 2.278,-1.864 1.205,1.311 2.791,2.072 4.62,2.072 2.068,0 3.823,-0.861 5.134,-2.52 1.378,1.584 3.552,2.52 5.239,2.52 4.038,0 6.794,-2.345 6.794,-6.692 v -9.514 c 0,-1.655 -1.033,-2.758 -2.482,-2.758 -1.448,0 -2.482,1.103 -2.482,2.758 v 8.653 c 0,2.002 -1.105,3.413 -2.899,3.413 -1.824,0 -2.929,-1.411 -2.929,-3.413 v -8.653 c 0,-1.655 -1.034,-2.758 -2.481,-2.758 -1.45,0 -2.482,1.103 -2.482,2.758 v 8.653 c 0,2.002 -1.103,3.413 -2.896,3.413 -2.034,0 -2.93,-1.411 -2.93,-3.413 v -8.653 c 0,-1.655 -1.034,-2.758 -2.484,-2.758 -1.447,0 -2.481,1.103 -2.481,2.758 z" /></g><g
           transform="translate(144.9678,158.7891)"
           id="g32"><path
             inkscape:connector-curvature="0"
             id="path34"
             style="fill:#59c134;fill-opacity:1;fill-rule:nonzero;stroke:none"
             d="M 0,0 C 2.586,0 3.861,2.689 3.861,4.998 3.861,7.347 2.586,10.07 0,10.07 -2.654,10.07 -3.898,7.587 -3.898,5.173 -3.898,2.759 -2.726,0 0,0 m -8.861,11.657 c 0,1.653 1.032,2.758 2.483,2.758 1.379,0 2.172,-0.765 2.48,-2.072 0.936,1.515 2.867,2.279 4.724,2.279 5.348,0 8.003,-5.003 8.003,-9.829 0,-4.69 -3.175,-9.342 -8.17,-9.342 -1.552,0 -3.243,0.585 -4.557,1.723 V -8.89 c 0,-1.655 -1.03,-2.76 -2.48,-2.76 -1.451,0 -2.483,1.105 -2.483,2.76 z" /></g><g
           transform="translate(156.3447,178.4419)"
           id="g36"><path
             inkscape:connector-curvature="0"
             id="path38"
             style="fill:#59c134;fill-opacity:1;fill-rule:nonzero;stroke:none"
             d="M 0,0 C 0,1.654 1.038,2.757 2.484,2.757 3.934,2.757 4.967,1.654 4.967,0 v -21.237 c 0,-1.653 -1.033,-2.759 -2.483,-2.759 -1.446,0 -2.484,1.106 -2.484,2.759 z" /></g><g
           transform="translate(176.7148,165.4776)"
           id="g40"><path
             inkscape:connector-curvature="0"
             id="path42"
             style="fill:#59c134;fill-opacity:1;fill-rule:nonzero;stroke:none"
             d="M 0,0 C -0.274,2.172 -1.652,3.794 -3.962,3.794 -6.171,3.794 -7.654,2.104 -7.895,0 Z m -7.79,-3.309 c 0.347,-2.448 2.378,-3.586 4.689,-3.586 2.551,0 4.309,2.003 5.618,2.003 1.07,0 2.036,-1.069 2.036,-2.141 0,-2.135 -4.415,-4.206 -8.101,-4.206 -5.587,0 -9.309,4.07 -9.309,9.548 0,5.037 3.65,9.625 8.895,9.625 5.375,0 8.929,-4.902 8.929,-9.036 0,-1.483 -0.656,-2.207 -2.173,-2.207 z" /></g><g
           transform="translate(190.124,163.7061)"
           id="g44"><path
             inkscape:connector-curvature="0"
             id="path46"
             style="fill:#2aabe8;fill-opacity:1;fill-rule:nonzero;stroke:none"
             d="m 0,0 c 0,-1.236 0.27,-2.256 0.809,-3.064 0.628,-0.966 1.526,-1.447 2.692,-1.447 1.167,0 2.065,0.481 2.693,1.447 0.538,0.83 0.809,1.851 0.809,3.064 0,1.166 -0.281,2.165 -0.842,2.995 C 5.51,3.959 4.624,4.442 3.501,4.442 2.379,4.442 1.493,3.959 0.842,2.995 0.281,2.165 0,1.166 0,0 m -2.558,-16.293 c -1.773,0 -2.66,1.293 -2.66,3.875 V 5.448 c 0,2.561 0.887,3.843 2.66,3.843 1.01,0 1.851,-0.573 2.525,-1.718 1.167,1.212 2.626,1.817 4.376,1.817 2.423,0 4.41,-0.963 5.959,-2.894 1.413,-1.796 2.121,-3.938 2.121,-6.429 0,-2.491 -0.732,-4.657 -2.189,-6.498 C 8.686,-8.45 6.699,-9.46 4.276,-9.46 c -1.662,0 -3.052,0.517 -4.173,1.548 v -4.51 c 0,-2.58 -0.889,-3.871 -2.661,-3.871" /></g><g
           transform="translate(209.6494,163.8575)"
           id="g48"><path
             inkscape:connector-curvature="0"
             id="path50"
             style="fill:#2aabe8;fill-opacity:1;fill-rule:nonzero;stroke:none"
             d="M 0,0 C 0,-1.195 0.269,-2.186 0.807,-2.976 1.435,-3.899 2.31,-4.36 3.434,-4.36 c 1.098,0 1.963,0.461 2.59,1.384 0.54,0.812 0.81,1.802 0.81,2.976 0,1.126 -0.28,2.096 -0.844,2.906 C 5.362,3.807 4.511,4.258 3.434,4.258 2.31,4.258 1.435,3.817 0.807,2.939 0.269,2.15 0,1.17 0,0 M 7.001,-7.423 C 5.945,-8.749 4.465,-9.409 2.558,-9.409 c -2.423,0 -4.4,0.974 -5.926,2.923 -1.413,1.791 -2.12,3.932 -2.12,6.418 0,2.486 0.741,4.636 2.222,6.451 1.571,1.95 3.579,2.924 6.026,2.924 1.705,0 3.117,-0.629 4.241,-1.886 0.606,1.145 1.448,1.718 2.525,1.718 1.75,0 2.626,-1.281 2.626,-3.844 V -5.397 c 0,-2.586 -0.876,-3.878 -2.626,-3.878 -1.098,0 -1.941,0.617 -2.525,1.852" /></g><g
           transform="translate(237.5205,172.9966)"
           id="g52"><path
             inkscape:connector-curvature="0"
             id="path54"
             style="fill:#2aabe8;fill-opacity:1;fill-rule:nonzero;stroke:none"
             d="m 0,0 c 0.764,0 1.387,-0.231 1.869,-0.69 0.484,-0.462 0.724,-1.073 0.724,-1.835 0,-0.538 -0.148,-1.156 -0.437,-1.851 l -8.081,-19.187 c -0.603,-1.437 -1.381,-2.155 -2.322,-2.155 -0.784,0 -1.42,0.23 -1.901,0.69 -0.483,0.459 -0.724,1.082 -0.724,1.868 0,0.785 0.358,1.93 1.077,3.433 0.515,1.056 1.031,2.098 1.548,3.13 l -5.353,12.49 c -0.179,0.426 -0.267,0.997 -0.267,1.716 0,0.651 0.256,1.213 0.773,1.684 0.516,0.472 1.112,0.707 1.783,0.707 0.741,0 1.336,-0.261 1.786,-0.779 0.291,-0.358 0.594,-0.955 0.908,-1.787 l 2.997,-8.038 3.265,8.476 C -1.817,-0.71 -1.031,0 0,0" /></g><g
           transform="translate(169.3623,138.4249)"
           id="g56"><path
             inkscape:connector-curvature="0"
             id="path58"
             style="fill:#918f90;fill-opacity:1;fill-rule:nonzero;stroke:none"
             d="m 0,0 c -0.872,0 -1.859,-0.443 -2.429,-3.146 -0.634,-3.006 0.631,-3.199 1.242,-3.199 0.556,0 1.741,0.304 2.331,3.182 C 1.556,-1.15 1.229,0 0,0 m 4.332,-3.163 c -0.798,-4.549 -3.628,-5.129 -6.025,-5.129 -2.365,0 -4.543,1.629 -3.926,5.151 0.48,2.754 2.116,5.301 6.09,5.106 C 3.243,1.83 4.874,-0.07 4.332,-3.163" /></g><g
           transform="translate(179.7305,130.5225)"
           id="g60"><path
             inkscape:connector-curvature="0"
             id="path62"
             style="fill:#918f90;fill-opacity:1;fill-rule:nonzero;stroke:none"
             d="m 0,0 -0.149,-0.148 c -0.594,-0.112 -1.29,-0.205 -1.669,-0.205 -1.402,0 -3.455,0.213 -2.586,3.746 0.588,2.388 1.008,4.174 1.008,4.174 l -1.297,-0.037 -0.112,0.15 0.538,1.872 0.131,0.094 h 1.223 l 0.539,2.393 0.129,0.129 c 1.391,0.315 1.764,0.409 3.042,0.779 L 0.908,12.835 0.092,9.608 1.985,9.646 2.059,9.516 C 1.799,8.736 1.725,8.532 1.483,7.661 L 1.335,7.53 -0.371,7.567 c 0,0 -0.347,-1.438 -0.832,-3.443 C -1.727,1.957 -1.451,2.067 -0.927,1.861 -0.479,1.683 0.111,1.91 0.445,2.021 L 0.556,1.929 Z" /></g><g
           transform="translate(184.9395,132.378)"
           id="g64"><path
             inkscape:connector-curvature="0"
             id="path66"
             style="fill:#918f90;fill-opacity:1;fill-rule:nonzero;stroke:none"
             d="m 0,0 c 0.88,-0.106 1.836,0.185 2.485,0.723 0.743,0.63 1.411,1.928 1.411,3.339 0,1.557 -1.002,1.744 -1.373,1.744 -0.539,0 -0.946,-0.279 -1.336,-0.539 z m 1.502,7.104 c 0.482,0.333 1.281,0.89 2.485,0.89 1.856,0 3.098,-1.391 3.098,-3.747 C 7.085,2.911 6.621,1.334 5.658,0.166 3.821,-2.078 1.502,-2.061 -0.464,-2.061 L -1.52,-6.492 -1.65,-6.585 c -0.426,0 -0.835,0.019 -1.261,0.019 -0.63,0 -1.188,-0.038 -1.873,-0.056 l -0.094,0.13 c 0,0 0.654,1.966 1.468,5.345 0.853,3.546 1.651,7.702 1.722,8.546 L -1.559,7.53 1.613,8.05 1.726,7.92 Z" /></g><g
           transform="translate(140.5093,135.9825)"
           id="g68"><path
             inkscape:connector-curvature="0"
             id="path70"
             style="fill:#918f90;fill-opacity:1;fill-rule:evenodd;stroke:none"
             d="M 0,0 C 0,5.056 4.096,9.155 9.151,9.161 V 5.851 C 5.923,5.844 3.311,3.228 3.311,0 c 0,-3.232 2.619,-5.852 5.851,-5.852 3.212,0 5.85,2.594 5.85,5.873 L 18.323,0.02 c 0,-5.081 -4.102,-9.181 -9.161,-9.181 C 4.102,-9.161 0,-5.061 0,0" /></g><g
           transform="translate(152.5107,141.129)"
           id="g72"><path
             inkscape:connector-curvature="0"
             id="path74"
             style="fill:#918f90;fill-opacity:1;fill-rule:nonzero;stroke:none"
             d="m 0,0 c 0,1.288 1.043,2.33 2.328,2.33 1.288,0 2.33,-1.042 2.33,-2.33 0,-1.286 -1.042,-2.329 -2.33,-2.329 C 1.043,-2.329 0,-1.286 0,0" /></g><g
           transform="translate(145.6289,135.9815)"
           id="g76"><path
             inkscape:connector-curvature="0"
             id="path78"
             style="fill:#918f90;fill-opacity:1;fill-rule:nonzero;stroke:none"
             d="M 0,0 C 0,2.245 1.819,4.064 4.063,4.064 6.308,4.064 8.128,2.245 8.128,0 8.128,-2.244 6.308,-4.063 4.064,-4.063 1.819,-4.063 0,-2.244 0,0" /></g><g
           transform="translate(205.457,130.4961)"
           id="g80"><path
             inkscape:connector-curvature="0"
             id="path82"
             style="fill:#918f90;fill-opacity:1;fill-rule:nonzero;stroke:none"
             d="m 0,0 -0.11,-0.096 -1.379,-0.028 -0.112,0.097 0.554,2.497 0.537,2.581 0.786,3.587 -3.145,-5.85 -1.518,-2.815 -0.109,-0.069 -1.368,-0.028 -0.068,0.097 -0.138,2 -0.443,6.609 -0.564,-2.222 -0.91,-3.38 -0.774,-3.021 -0.083,-0.068 -1.241,-0.015 -0.068,0.097 0.799,2.717 0.978,3.477 0.926,3.408 0.097,0.07 2.028,0.013 0.084,-0.083 0.15,-2.47 0.194,-2.69 c 0.111,-1.49 0.124,-1.779 0.165,-2.925 l 2.871,5.491 1.366,2.594 0.124,0.07 L 1.698,9.672 1.767,9.575 1.104,6.154 0.58,3.325 Z" /></g><g
           transform="translate(212.6328,135.0772)"
           id="g84"><path
             inkscape:connector-curvature="0"
             id="path86"
             style="fill:#918f90;fill-opacity:1;fill-rule:nonzero;stroke:none"
             d="m 0,0 c 0,1.395 -0.896,1.628 -1.406,1.628 -2.167,0 -2.443,-3.366 -2.443,-3.878 0,-1.104 0.662,-1.586 1.408,-1.586 1.476,0 2.029,1.519 2.276,2.649 C -0.069,-0.786 0,-0.387 0,0 m -2.47,-4.856 c -1.835,0 -2.842,0.952 -2.842,2.829 0,1.683 0.897,4.663 3.906,4.663 1.807,0 2.883,-1.008 2.883,-2.787 0,-0.484 -0.082,-0.981 -0.207,-1.464 -0.302,-1.186 -1.145,-3.241 -3.74,-3.241" /></g><g
           transform="translate(216.1113,131.462)"
           id="g88"><path
             inkscape:connector-curvature="0"
             id="path90"
             style="fill:#918f90;fill-opacity:1;fill-rule:nonzero;stroke:none"
             d="m 0,0 0.221,-0.014 c 0.717,0 1.711,0 2.608,0.608 1.022,0.704 1.503,1.931 1.503,2.814 0,1.256 -0.758,1.738 -1.642,1.738 -0.703,0 -1.202,-0.302 -1.641,-0.579 z m -1.684,-1.007 0.734,3.118 0.563,2.526 C -0.139,5.671 0.097,6.72 0.305,7.741 0.483,8.609 0.538,8.928 0.622,9.562 L 0.731,9.66 2.236,9.921 2.306,9.824 1.917,8.293 1.283,5.644 C 1.863,5.96 2.415,6.265 3.299,6.265 4.664,6.265 5.81,5.34 5.81,3.602 5.81,2.897 5.589,1.573 4.664,0.511 3.422,-0.91 1.891,-1.007 0.109,-1.075 H -0.648 L -1.615,-1.09 Z" /></g><g
           transform="translate(225.8242,139.6036)"
           id="g92"><path
             inkscape:connector-curvature="0"
             id="path94"
             style="fill:#918f90;fill-opacity:1;fill-rule:nonzero;stroke:none"
             d="m 0,0 -0.109,-0.111 -1.448,-0.194 -0.083,0.111 0.29,1.27 0.123,0.11 1.436,0.179 0.109,-0.096 z m -1.986,-9.135 -0.097,-0.068 -1.462,-0.042 -0.069,0.083 c 0.385,1.545 0.497,2.001 0.869,3.67 l 0.18,0.854 c 0.248,1.118 0.291,1.381 0.441,2.374 l 0.096,0.097 1.504,0.221 0.07,-0.097 c -0.344,-1.338 -0.428,-1.711 -0.841,-3.586 l -0.291,-1.423 z" /></g><g
           transform="translate(228.0059,135.1319)"
           id="g96"><path
             inkscape:connector-curvature="0"
             id="path98"
             style="fill:#918f90;fill-opacity:1;fill-rule:nonzero;stroke:none"
             d="m 0,0 c -0.524,-2.428 -0.594,-2.813 -0.923,-4.663 l -0.111,-0.082 -1.409,-0.043 -0.054,0.084 0.636,2.856 0.688,3.215 c 0.319,1.462 0.676,3.159 0.843,4.525 L -0.234,5.99 1.283,6.251 1.352,6.168 0.538,2.553 Z" /></g><g
           transform="translate(127.1235,132.6622)"
           id="g100"><path
             inkscape:connector-curvature="0"
             id="path102"
             style="fill:#918f90;fill-opacity:1;fill-rule:nonzero;stroke:none"
             d="M 0,0 C 0.131,0.404 0.178,0.905 0.178,1.615 0.178,2.311 0.131,2.811 0,3.23 -0.258,3.99 -0.838,4.393 -1.696,4.393 -2.551,4.393 -3.148,4.006 -3.407,3.23 -3.536,2.843 -3.585,2.391 -3.585,1.615 -3.585,0.84 -3.536,0.372 -3.407,0 c 0.259,-0.775 0.856,-1.179 1.711,-1.179 0.858,0 1.438,0.419 1.696,1.179 m -4.78,-2.261 c -0.097,0 -0.161,0.065 -0.161,0.162 V 8.56 c 0,0.097 0.064,0.161 0.161,0.161 h 1.033 c 0.099,0 0.162,-0.064 0.162,-0.161 V 4.587 h 0.016 c 0.372,0.614 1.034,1.065 2.197,1.065 1.34,0 2.278,-0.629 2.664,-1.856 0.211,-0.614 0.275,-1.228 0.275,-2.181 0,-0.969 -0.064,-1.581 -0.275,-2.197 -0.386,-1.227 -1.324,-1.856 -2.664,-1.856 -1.163,0 -1.825,0.468 -2.197,1.082 h -0.016 v -0.743 c 0,-0.097 -0.063,-0.162 -0.162,-0.162 z" /></g><g
           transform="translate(130.8691,127.4952)"
           id="g104"><path
             inkscape:connector-curvature="0"
             id="path106"
             style="fill:#918f90;fill-opacity:1;fill-rule:nonzero;stroke:none"
             d="m 0,0 c -0.097,0 -0.161,0.064 -0.161,0.161 v 0.937 c 0,0.096 0.064,0.162 0.161,0.162 h 0.292 c 0.629,0 0.969,0.274 1.308,1.162 l 0.258,0.712 -2.843,7.346 c -0.032,0.097 0.016,0.163 0.13,0.163 h 1.129 c 0.098,0 0.162,-0.049 0.194,-0.163 L 2.504,4.894 H 2.537 L 4.49,10.48 c 0.032,0.114 0.096,0.163 0.194,0.163 h 1.099 c 0.095,0 0.161,-0.066 0.127,-0.163 L 2.859,2.31 C 2.18,0.484 1.583,0 0.42,0 Z" /></g></g></g><g
       transform="matrix(0.45766914,0,0,0.45766914,-13.996465,195.77632)"
       id="g108"><g
         id="g110"><g
           id="g116"><g
             id="g118"><path
               inkscape:connector-curvature="0"
               id="path130"
               style="fill:url(#radialGradient128);stroke:none"
               d="m 54.641,168.233 c 0,-1.639 1.328,-2.966 2.966,-2.966 v 0 c 1.64,0 2.968,1.327 2.968,2.966 v 0 c 0,1.64 -1.328,2.968 -2.968,2.968 v 0 c -1.638,0 -2.966,-1.328 -2.966,-2.968" /></g></g></g></g><g
       transform="matrix(0.45766914,0,0,0.45766914,-13.996465,195.77632)"
       id="g132"><g
         id="g134"><g
           id="g140"><g
             id="g142"><path
               inkscape:connector-curvature="0"
               id="path152"
               style="fill:url(#radialGradient150);stroke:none"
               d="m 53.291,179.732 c -5.867,-2.643 -9.953,-8.541 -9.953,-15.393 v 0 c 0,-9.319 7.554,-16.872 16.872,-16.872 v 0 c 3.238,0 6.265,0.912 8.834,2.495 v 0 c 4.409,2.714 7.471,7.399 7.965,12.829 v 0 c 0.027,0.292 0.102,1.225 0.114,1.376 v 0 c 0.005,0.046 0.007,0.092 0.011,0.139 v 0 c 0.007,0.107 0.012,0.214 0.018,0.319 v 0 c 0,0.05 0.001,0.099 0.003,0.151 v 0 c 0.002,0.108 0.002,0.217 0,0.326 v 0 c 0,0.04 0,0.08 -0.003,0.12 v 0 c -0.003,0.148 -0.01,0.297 -0.022,0.444 v 0 c 0,0.002 -10e-4,0.005 -10e-4,0.008 v 0 c -0.011,0.144 -0.027,0.285 -0.046,0.427 v 0 c -0.004,0.037 -0.01,0.073 -0.014,0.109 v 0 c -0.017,0.111 -0.033,0.22 -0.054,0.329 v 0 c -0.006,0.037 -0.014,0.074 -0.021,0.112 v 0 c -0.022,0.118 -0.048,0.234 -0.075,0.349 v 0 c -0.005,0.023 -0.01,0.046 -0.016,0.069 v 0 c -0.039,0.163 -0.051,0.256 -0.092,0.388 v 0 c -0.022,0.122 -0.064,0.199 -0.119,0.397 v 0 c -0.643,1.758 -1.816,3.17 -3.353,3.893 v 0 c -0.03,0.015 -0.062,0.03 -0.092,0.045 v 0 c -0.021,0.009 -0.043,0.017 -0.063,0.026 v 0 c -0.033,0.014 -0.067,0.03 -0.1,0.043 v 0 c -0.062,0.025 -0.124,0.05 -0.186,0.073 v 0 c -0.004,0.002 -0.009,0.004 -0.013,0.005 v 0 c 0.002,-0.001 0.004,-0.001 0.006,-0.002 v 0 c -0.373,0.139 -0.764,0.239 -1.17,0.294 v 0 c -0.418,0.057 -0.832,0.061 -1.241,0.023 v 0 c 0.021,0.001 0.04,0.004 0.059,0.006 v 0 c -0.021,-0.002 -0.045,-0.005 -0.068,-0.006 v 0 c -0.034,-0.005 -0.068,-0.008 -0.099,-0.012 v 0 c -0.107,-0.011 -0.212,-0.027 -0.319,-0.044 v 0 c -0.976,-0.167 -1.904,-0.591 -2.723,-1.218 v 0 l 0.043,0.029 c 0,0 -0.746,-0.526 -1.579,-1.93 v 0 c -0.465,-0.782 -0.956,-1.836 -1.362,-3.221 v 0 c -0.029,-0.11 -0.06,-0.217 -0.091,-0.325 v 0 c 0,-10e-4 -0.002,-0.002 -0.002,-0.002 v 0 c -0.262,-0.967 -0.624,-1.679 -0.971,-2.285 v 0 c -0.438,-0.766 -0.897,-1.35 -1.576,-1.91 v 0 c -1.353,-1.26 -3.051,-1.976 -4.827,-1.901 v 0 c -0.272,0.009 -0.548,0.035 -0.823,0.08 v 0 c -3.9,0.661 -6.42,4.989 -5.629,9.668 v 0 c 0.008,0.045 0.018,0.088 0.026,0.132 v 0 c 0.425,2.464 1.692,4.533 3.379,5.815 v 0 c 0.733,0.557 1.546,0.964 2.4,1.193 v 0 c 0.274,0.072 0.551,0.127 0.834,0.163 v 0 c 0.365,0.051 0.737,0.069 1.11,0.053 v 0 c 0.074,-0.004 0.151,-0.009 0.228,-0.017 v 0 c 0.45,-0.039 0.954,-0.133 1.507,-0.317 v 0 c 0.28,-0.092 0.57,-0.205 0.874,-0.347 v 0 c 1.191,-0.557 1.943,-0.964 2.654,-1.212 v 0 c 0.002,-0.003 0.005,-0.004 0.008,-0.005 v 0 c 0.002,0 0.004,0 0.007,-0.001 v 0 c 0.101,-0.038 0.203,-0.069 0.304,-0.097 v 0 c 0.01,-0.003 0.021,-0.006 0.032,-0.008 v 0 c 1.643,-0.439 3.305,0.257 3.816,1.653 v 0 c 0.335,0.917 0.094,1.924 -0.545,2.713 v 0 c -0.228,0.281 -0.508,0.533 -0.83,0.744 v 0 c -0.325,0.237 -0.739,0.486 -1.254,0.713 v 0 c -1.626,0.715 -3.184,0.756 -3.876,0.822 v 0 c -0.323,0.02 -0.649,0.031 -0.977,0.031 v 0 c -2.465,0 -4.808,-0.53 -6.919,-1.479 m 19.594,-7.793 c -0.012,0.005 -0.024,0.011 -0.038,0.015 v 0 c 0.013,-0.005 0.025,-0.01 0.038,-0.015" /></g></g></g></g><g
       transform="matrix(0.45766914,0,0,0.45766914,-13.996465,195.77632)"
       id="g154"><g
         id="g156"><g
           id="g162"><g
             id="g164"><path
               inkscape:connector-curvature="0"
               id="path174"
               style="fill:url(#radialGradient172);stroke:none"
               d="m 47.145,175.013 c -2.38,-2.908 -3.807,-6.624 -3.807,-10.674 v 0 c 0,-0.699 0.043,-1.389 0.126,-2.065 v 0 c 0.117,1.077 0.461,2.228 1.007,3.406 v 0 c -0.009,1.751 0.297,3.616 0.957,5.473 v 0 c 0.686,1.93 1.674,3.628 2.845,5.011 v 0 c -0.388,-0.372 -0.766,-0.758 -1.128,-1.151" /></g></g></g></g><g
       transform="matrix(0.45766914,0,0,0.45766914,-13.996465,195.77632)"
       id="g176"><g
         clip-path="url(#clipPath182)"
         id="g178"><g
           id="g184"><g
             id="g186" /><g
             mask="url(#mask296)"
             id="g412"><g
               id="g414" /><g
               id="g622"><g
                 id="g620"
                 opacity="0.699997"
                 clip-path="url(#clipPath418)"><g
                   id="g528"><g
                     id="g526"><g
                       id="g524"><g
                         id="g522"><path
                           inkscape:connector-curvature="0"
                           id="path520"
                           style="fill:url(#radialGradient428);stroke:none"
                           d="m 58.174,147.588 c -2.906,0.451 -5.713,1.596 -8.124,3.279 2.317,-1.749 5.097,-2.914 8.124,-3.279" /></g></g></g></g><g
                   id="g538"><g
                     id="g536"><g
                       id="g534"><g
                         id="g532"><path
                           inkscape:connector-curvature="0"
                           id="path530"
                           style="fill:url(#radialGradient438);stroke:none"
                           d="m 47.743,157.631 c 0.442,-0.316 0.903,-0.556 1.377,-0.735 -1.537,0.694 -2.731,1.963 -3.525,3.592 0.253,-0.603 0.593,-1.165 1.041,-1.671 0.323,-0.44 0.694,-0.84 1.107,-1.186" /></g></g></g></g><g
                   id="g548"><g
                     id="g546"><g
                       id="g544"><g
                         id="g542"><path
                           inkscape:connector-curvature="0"
                           id="path540"
                           style="fill:url(#radialGradient448);stroke:none"
                           d="m 47.743,157.631 c 0.442,-0.316 0.903,-0.556 1.377,-0.735 -1.537,0.694 -2.731,1.963 -3.525,3.592 0.253,-0.603 0.593,-1.165 1.041,-1.671 0.323,-0.44 0.694,-0.84 1.107,-1.186" /></g></g></g></g><g
                   id="g558"><g
                     id="g556"><g
                       id="g554"><g
                         id="g552"><path
                           inkscape:connector-curvature="0"
                           id="path550"
                           style="fill:url(#radialGradient458);stroke:none"
                           d="m 49.12,156.896 c 0.159,-0.072 0.319,-0.151 0.49,-0.2 -0.168,0.06 -0.331,0.128 -0.49,0.2" /></g></g></g></g><g
                   id="g568"><g
                     id="g566"><g
                       id="g564"><g
                         id="g562"><path
                           inkscape:connector-curvature="0"
                           id="path560"
                           style="fill:url(#radialGradient468);stroke:none"
                           d="m 57.679,158.201 c 4.846,2.271 12.239,0.823 16.385,-3.489 -4.146,4.312 -11.624,5.93 -16.385,3.489" /></g></g></g></g><g
                   id="g578"><g
                     id="g576"><g
                       id="g574"><g
                         id="g572"><path
                           inkscape:connector-curvature="0"
                           id="path570"
                           style="fill:url(#radialGradient478);stroke:none"
                           d="m 57.679,158.201 c -4.118,-1.929 -6.021,-2.102 -8.069,-1.505 1.689,-0.599 3.224,-0.977 8.069,1.505" /></g></g></g></g><g
                   id="g588"><g
                     id="g586"><g
                       id="g584"><g
                         id="g582"><path
                           inkscape:connector-curvature="0"
                           id="path580"
                           style="fill:url(#radialGradient488);stroke:none"
                           d="m 57.679,158.201 c -4.118,-1.929 -6.021,-2.102 -8.069,-1.505 1.689,-0.599 3.224,-0.977 8.069,1.505" /></g></g></g></g><g
                   id="g598"><g
                     id="g596"><g
                       id="g594"><g
                         id="g592"><path
                           inkscape:connector-curvature="0"
                           id="path590"
                           style="fill:url(#radialGradient498);stroke:none"
                           d="m 57.679,158.201 c -4.845,-2.482 -6.38,-2.104 -8.069,-1.505 -0.171,0.049 -0.331,0.128 -0.49,0.2 -0.474,0.179 -0.935,0.419 -1.377,0.735 -0.413,0.346 -0.784,0.746 -1.107,1.186 -0.448,0.506 -0.788,1.068 -1.041,1.671 -0.723,1.485 -1.114,3.27 -1.124,5.192 -0.545,-1.178 -0.89,-2.329 -1.008,-3.406 0.569,-4.651 3.028,-8.718 6.587,-11.407 2.411,-1.683 5.218,-2.828 8.124,-3.279 0.668,-0.079 1.347,-0.122 2.036,-0.122 3.238,0 6.265,0.913 8.833,2.496 1.984,1.221 3.693,2.843 5.021,4.75 -4.146,4.312 -11.539,5.76 -16.385,3.489" /></g></g></g></g><g
                   id="g608"><g
                     id="g606"><g
                       id="g604"><g
                         id="g602"><path
                           inkscape:connector-curvature="0"
                           id="path600"
                           style="fill:url(#radialGradient508);stroke:none"
                           d="m 45.428,171.153 c 0.686,1.931 1.674,3.628 2.845,5.012 -0.389,-0.373 -0.765,-0.759 -1.128,-1.152 -2.38,-2.908 -3.807,-6.624 -3.807,-10.674 0,-0.699 0.043,-1.389 0.125,-2.065 0.118,1.077 0.463,2.228 1.008,3.406 -0.009,1.751 0.297,3.616 0.957,5.473" /></g></g></g></g><g
                   id="g618"><g
                     id="g616"><g
                       id="g614"><g
                         id="g612"><path
                           inkscape:connector-curvature="0"
                           id="path610"
                           style="fill:url(#radialGradient518);stroke:none"
                           d="m 57.679,158.201 c -4.845,-2.482 -6.38,-2.104 -8.069,-1.505 -0.171,0.049 -0.331,0.128 -0.49,0.2 -0.474,0.179 -0.935,0.419 -1.377,0.735 -0.413,0.346 -0.784,0.746 -1.107,1.186 -0.448,0.506 -0.788,1.068 -1.041,1.671 -0.723,1.485 -1.114,3.27 -1.124,5.192 -0.009,1.751 0.297,3.616 0.957,5.473 0.686,1.931 1.674,3.628 2.845,5.012 -0.389,-0.373 -0.765,-0.759 -1.128,-1.152 -2.38,-2.908 -3.807,-6.624 -3.807,-10.674 0,-0.699 0.043,-1.389 0.125,-2.065 0.569,-4.651 3.028,-8.718 6.587,-11.407 2.411,-1.683 5.218,-2.828 8.124,-3.279 0.668,-0.079 1.347,-0.122 2.036,-0.122 3.238,0 6.265,0.913 8.833,2.496 1.984,1.221 3.693,2.843 5.021,4.75 -4.146,4.312 -11.539,5.76 -16.385,3.489" /></g></g></g></g></g></g></g></g><g
           id="g624"><g
             id="g626" /><g
             mask="url(#mask650)"
             id="g684"><g
               id="g686" /><g
               id="g714"><g
                 id="g712"
                 opacity="0.949997"
                 clip-path="url(#clipPath690)"><g
                   id="g710"><g
                     id="g708"><g
                       id="g706"><g
                         id="g704"><path
                           inkscape:connector-curvature="0"
                           id="path702"
                           style="fill:url(#radialGradient700);stroke:none"
                           d="m 64.66,159.249 c -2.289,-7.101 -4.143,-8.222 -6.361,-9.277 -0.213,-0.118 -0.444,-0.197 -0.67,-0.282 -0.631,-0.285 -1.311,-0.498 -2.044,-0.621 -0.736,-0.066 -1.481,-0.036 -2.224,0.077 -0.21,0.012 -0.418,0.035 -0.624,0.063 2.253,-1.115 4.791,-1.743 7.473,-1.743 3.238,0 6.265,0.913 8.833,2.496 4.41,2.714 7.473,7.399 7.966,12.829 0.027,0.292 0.102,1.225 0.114,1.376 0.005,0.046 0.007,0.092 0.01,0.139 0.008,0.107 0.013,0.214 0.018,0.319 0.001,0.05 0.002,0.1 0.004,0.15 0.002,0.109 0.002,0.219 0,0.327 0,0.04 0,0.079 -0.003,0.12 -0.003,0.148 -0.01,0.297 -0.022,0.444 0,0.002 -10e-4,0.005 -10e-4,0.007 -0.011,0.144 -0.027,0.286 -0.046,0.429 -0.004,0.036 -0.009,0.072 -0.014,0.109 -0.017,0.11 -0.033,0.219 -0.054,0.328 -0.006,0.037 -0.014,0.075 -0.021,0.112 -0.022,0.118 -0.047,0.234 -0.076,0.349 -0.004,0.023 -0.01,0.046 -0.015,0.069 -0.04,0.163 -0.051,0.256 -0.091,0.388 -0.023,0.122 -0.065,0.2 -0.121,0.398 -0.288,0.786 -0.681,1.502 -1.166,2.119 -5.016,-2.201 -9.236,-6.221 -10.865,-10.725" /></g></g></g></g></g></g></g></g><g
           id="g716"><g
             id="g718" /><g
             mask="url(#mask748)"
             id="g784"><g
               id="g786" /><g
               id="g836"><g
                 id="g834"
                 clip-path="url(#clipPath790)"><g
                   id="g822"><g
                     id="g820"><g
                       id="g818"><g
                         id="g816"><path
                           inkscape:connector-curvature="0"
                           id="path814"
                           style="fill:url(#radialGradient800);stroke:none"
                           d="m 54.087,177.13 c 2.045,0.922 4.315,1.435 6.704,1.435 0.318,0 0.632,-0.013 0.945,-0.031 0.67,-0.064 2.18,-0.105 3.754,-0.796 0.5,-0.219 0.901,-0.462 1.217,-0.69 0.312,-0.206 0.582,-0.45 0.804,-0.722 0.053,-0.068 0.103,-0.136 0.152,-0.206 0.007,0.023 0.02,0.045 0.028,0.068 0.335,0.917 0.096,1.924 -0.544,2.713 -0.229,0.281 -0.508,0.533 -0.83,0.745 -0.326,0.236 -0.739,0.485 -1.254,0.712 -1.626,0.715 -3.184,0.756 -3.876,0.822 -0.323,0.019 -0.649,0.031 -0.977,0.031 -2.465,0 -4.808,-0.529 -6.919,-1.479 -5.868,-2.643 -9.953,-8.541 -9.953,-15.393 0,-3.365 0.985,-6.5 2.683,-9.132 -1.01,2.125 -1.576,4.502 -1.576,7.011 0,6.639 3.956,12.354 9.642,14.912" /></g></g></g></g><g
                   id="g832"><g
                     id="g830"><g
                       id="g828"><g
                         id="g826"><path
                           inkscape:connector-curvature="0"
                           id="path824"
                           style="fill:url(#radialGradient812);stroke:none"
                           d="m 54.087,177.13 c 2.045,0.922 4.315,1.435 6.704,1.435 0.318,0 0.632,-0.013 0.945,-0.031 0.67,-0.064 2.18,-0.105 3.754,-0.796 0.5,-0.219 0.901,-0.462 1.217,-0.69 0.312,-0.206 0.582,-0.45 0.804,-0.722 0.053,-0.068 0.103,-0.136 0.152,-0.206 0.007,0.023 0.02,0.045 0.028,0.068 0.335,0.917 0.096,1.924 -0.544,2.713 -0.229,0.281 -0.508,0.533 -0.83,0.745 -0.326,0.236 -0.739,0.485 -1.254,0.712 -1.626,0.715 -3.184,0.756 -3.876,0.822 -0.323,0.019 -0.649,0.031 -0.977,0.031 -2.465,0 -4.808,-0.529 -6.919,-1.479 -5.868,-2.643 -9.953,-8.541 -9.953,-15.393 0,-3.365 0.985,-6.5 2.683,-9.132 -1.01,2.125 -1.576,4.502 -1.576,7.011 0,6.639 3.956,12.354 9.642,14.912" /></g></g></g></g></g></g></g></g></g></g><g
       transform="matrix(0.45766914,0,0,0.45766914,-13.996465,195.77632)"
       id="g838"><g
         id="g840"><g
           id="g846"><g
             id="g848"><path
               inkscape:connector-curvature="0"
               id="path868"
               style="fill:url(#radialGradient866);stroke:none"
               d="m 222.407,119.923 v -17.674 h 17.61 v 5.833 c 0.071,0.101 0.105,0.23 0.105,0.389 v 0 c 0,0.181 -0.034,0.293 -0.105,0.387 v 0 11.065 z" /></g></g></g></g><rect
       transform="scale(1,-1)"
       y="-250.6568"
       x="46.910603"
       height="7.9547477"
       width="12.78453"
       id="rect1256"
       style="fill:#ffffff;fill-opacity:1;stroke-width:17.0079" /><rect
       transform="scale(1,-1)"
       style="fill:#ffffff;fill-opacity:1;stroke-width:17.0079"
       id="rect1256-3"
       width="12.78453"
       height="7.9547477"
       x="67.260857"
       y="-250.6568" /><g
       transform="matrix(0.45766914,0,0,0.45766914,-13.996465,195.77632)"
       id="g870"><g
         clip-path="url(#clipPath876)"
         id="g872"><g
           transform="translate(222.4072,110.9747)"
           id="g878"><path
             inkscape:connector-curvature="0"
             id="path880"
             style="fill:#ffffff;fill-opacity:1;fill-rule:nonzero;stroke:none"
             d="m 0,0 h 0.846 l 0.19,0.46 H 1.464 L 1.653,0 H 3.317 V 0.352 L 3.466,-0.001 H 4.33 L 4.479,0.357 V 0 H 8.614 L 8.612,0.755 h 0.08 C 8.748,0.753 8.765,0.748 8.765,0.655 V 0 h 2.138 V 0.176 C 11.076,0.083 11.344,0 11.697,0 h 0.9 l 0.192,0.46 h 0.428 L 13.404,0 h 1.735 V 0.437 L 15.401,0 h 1.39 V 2.888 H 15.416 V 2.547 l -0.193,0.341 h -1.41 V 2.547 L 13.635,2.888 H 11.729 C 11.41,2.888 11.13,2.844 10.903,2.72 V 2.888 H 9.588 V 2.72 C 9.443,2.848 9.247,2.888 9.029,2.888 H 4.224 L 3.901,2.143 3.57,2.888 H 2.057 V 2.547 L 1.891,2.888 H 0.6 L 0,1.515 Z M 16.35,0.407 H 15.648 L 14.71,1.961 V 0.407 H 13.702 L 13.509,0.869 H 12.481 L 12.294,0.407 h -0.579 c -0.24,0 -0.545,0.053 -0.718,0.229 -0.174,0.176 -0.265,0.414 -0.265,0.791 0,0.306 0.055,0.588 0.268,0.809 0.159,0.165 0.41,0.242 0.751,0.242 H 12.23 V 2.034 h -0.468 c -0.181,0 -0.283,-0.027 -0.381,-0.123 -0.085,-0.087 -0.143,-0.252 -0.143,-0.469 0,-0.221 0.044,-0.381 0.136,-0.486 0.076,-0.082 0.215,-0.107 0.346,-0.107 h 0.221 l 0.699,1.629 h 0.741 l 0.838,-1.959 v 1.959 h 0.754 l 0.87,-1.443 v 1.443 h 0.507 z m -5.86,0 H 9.985 v 2.07 H 10.49 Z M 9.698,1.92 C 9.698,1.59 9.478,1.419 9.35,1.368 9.458,1.327 9.55,1.254 9.595,1.193 9.664,1.091 9.676,0.998 9.676,0.813 V 0.407 H 9.177 L 9.175,0.668 c 0,0.125 0.013,0.304 -0.078,0.403 C 9.024,1.145 8.914,1.16 8.736,1.16 H 8.205 V 0.407 H 7.71 v 2.071 h 1.139 c 0.253,0 0.439,-0.007 0.598,-0.1 C 9.604,2.286 9.698,2.15 9.698,1.92 M 7.367,0.407 H 5.713 V 2.478 H 7.367 V 2.046 H 6.208 V 1.673 H 7.339 V 1.249 H 6.208 V 0.835 h 1.159 z m -2.022,0 H 4.837 L 4.835,2.028 4.117,0.407 H 3.683 L 2.963,2.03 V 0.407 H 1.956 L 1.767,0.869 H 0.735 L 0.544,0.407 H 0.006 L 0.893,2.478 H 1.628 L 2.47,0.517 V 2.478 H 3.277 L 3.925,1.073 4.521,2.478 H 5.345 Z M 13.341,1.301 12.998,2.126 12.657,1.301 Z M 9.051,1.629 C 8.983,1.588 8.902,1.586 8.806,1.586 H 8.205 v 0.46 H 8.814 C 8.9,2.046 8.99,2.042 9.049,2.009 9.113,1.979 9.153,1.915 9.153,1.826 9.153,1.735 9.115,1.662 9.051,1.629 M 1.588,1.301 1.249,2.126 0.912,1.301" /></g><g
           transform="translate(232.002,109.2061)"
           id="g882"><path
             inkscape:connector-curvature="0"
             id="path884"
             style="fill:#ffffff;fill-opacity:1;fill-rule:nonzero;stroke:none"
             d="M 0,0 C 0,-0.576 -0.43,-0.694 -0.862,-0.694 H -1.48 V -1.39 h -0.962 l -0.61,0.686 -0.633,-0.686 h -1.961 v 2.072 h 1.991 l 0.609,-0.679 0.63,0.679 h 1.581 C -0.441,0.682 0,0.573 0,0 m -3.936,-0.958 h -1.216 v 0.412 h 1.087 v 0.423 h -1.087 v 0.377 h 1.241 L -3.37,-0.35 Z m 1.963,-0.243 -0.76,0.844 0.76,0.817 z m 1.132,0.927 H -1.48 v 0.528 h 0.645 c 0.179,0 0.303,-0.073 0.303,-0.254 0,-0.18 -0.118,-0.274 -0.309,-0.274 m 3.34,0.956 H 4.151 V 0.254 H 2.992 V -0.123 H 4.123 V -0.546 H 2.992 V -0.958 L 4.151,-0.96 V -1.39 H 2.499 Z M 1.874,-0.427 c 0.11,-0.041 0.2,-0.113 0.242,-0.174 0.071,-0.101 0.08,-0.195 0.082,-0.378 V -1.39 H 1.701 v 0.26 c 0,0.124 0.013,0.309 -0.08,0.405 -0.072,0.075 -0.183,0.092 -0.363,0.092 H 0.729 V -1.39 H 0.232 v 2.072 h 1.143 c 0.25,0 0.433,-0.011 0.596,-0.098 0.156,-0.094 0.254,-0.224 0.254,-0.46 0,-0.33 -0.221,-0.499 -0.351,-0.551 M 1.575,-0.169 C 1.509,-0.208 1.427,-0.212 1.33,-0.212 H 0.729 v 0.466 h 0.61 C 1.427,0.254 1.515,0.252 1.575,0.216 1.639,0.183 1.678,0.118 1.678,0.03 1.678,-0.059 1.639,-0.13 1.575,-0.169 M 6.041,-0.297 C 6.138,-0.396 6.189,-0.522 6.189,-0.735 6.189,-1.182 5.911,-1.39 5.412,-1.39 H 4.448 v 0.445 h 0.96 c 0.094,0 0.16,0.012 0.202,0.051 0.035,0.032 0.059,0.079 0.059,0.135 0,0.061 -0.026,0.109 -0.061,0.137 C 5.57,-0.59 5.519,-0.576 5.432,-0.576 4.969,-0.561 4.39,-0.59 4.39,0.065 c 0,0.3 0.188,0.617 0.707,0.617 H 6.089 V 0.241 H 5.182 C 5.092,0.241 5.033,0.237 4.983,0.203 4.929,0.17 4.909,0.12 4.909,0.055 4.909,-0.023 4.955,-0.077 5.017,-0.1 5.069,-0.118 5.125,-0.123 5.21,-0.123 L 5.477,-0.13 C 5.745,-0.137 5.93,-0.184 6.041,-0.297 M 8.016,-1.124 C 7.896,-1.3 7.661,-1.39 7.344,-1.39 H 6.388 v 0.445 H 7.34 c 0.095,0 0.161,0.012 0.2,0.051 0.035,0.032 0.059,0.079 0.059,0.135 0,0.061 -0.024,0.109 -0.061,0.137 C 7.503,-0.59 7.45,-0.576 7.364,-0.576 6.899,-0.561 6.319,-0.59 6.319,0.065 c 0,0.3 0.192,0.617 0.71,0.617 H 8.016 V 1.094 H 7.1 C 6.823,1.094 6.622,1.027 6.48,0.925 V 1.094 H 5.125 C 4.908,1.094 4.654,1.04 4.534,0.925 V 1.094 H 2.114 V 0.925 C 1.922,1.063 1.597,1.094 1.447,1.094 H -0.149 V 0.925 C -0.302,1.072 -0.641,1.094 -0.847,1.094 H -2.633 L -3.042,0.651 -3.425,1.094 h -2.668 v -2.89 h 2.618 l 0.421,0.449 0.398,-0.449 1.613,-0.002 v 0.68 h 0.158 c 0.215,-0.003 0.467,0.006 0.69,0.101 v -0.779 h 1.331 v 0.753 H 1.2 c 0.082,0 0.09,-0.003 0.09,-0.085 v -0.668 h 4.044 c 0.257,0 0.524,0.066 0.674,0.185 V -1.796 H 7.29 c 0.267,0 0.527,0.037 0.726,0.133 z m 0,1.365 H 7.113 C 7.023,0.241 6.964,0.237 6.913,0.204 6.861,0.17 6.841,0.12 6.841,0.055 6.841,-0.023 6.885,-0.076 6.949,-0.1 7.002,-0.118 7.058,-0.123 7.14,-0.123 L 7.408,-0.13 C 7.679,-0.137 7.859,-0.184 7.97,-0.297 7.99,-0.312 8.002,-0.33 8.016,-0.349" /></g><path
           inkscape:connector-curvature="0"
           id="path886"
           style="fill:#231f20;fill-opacity:1;fill-rule:nonzero;stroke:none"
           d="M 116.466,102.532 H 88.545 v 17.674 h 27.921 z" /><g
           transform="translate(109.2173,104.0186)"
           id="g888"><path
             inkscape:connector-curvature="0"
             id="path890"
             style="fill:#ffffff;fill-opacity:1;fill-rule:nonzero;stroke:none"
             d="m 0,0 v -0.039 h 0.036 c 0.008,0 0.015,0.002 0.02,0.005 0.005,0.003 0.007,0.008 0.007,0.014 0,0.007 -0.002,0.012 -0.007,0.015 C 0.051,-0.001 0.044,0 0.036,0 Z M 0.037,0.028 C 0.055,0.028 0.07,0.023 0.08,0.016 0.09,0.007 0.096,-0.005 0.096,-0.02 0.096,-0.031 0.092,-0.041 0.083,-0.05 0.075,-0.058 0.063,-0.062 0.048,-0.064 L 0.097,-0.12 H 0.059 L 0.014,-0.064 H 0 V -0.12 H -0.032 V 0.028 Z M 0.027,-0.17 c 0.017,0 0.033,0.003 0.048,0.01 0.015,0.006 0.028,0.014 0.039,0.026 0.011,0.011 0.02,0.025 0.026,0.039 0.006,0.015 0.01,0.032 0.01,0.048 0,0.018 -0.004,0.033 -0.01,0.049 C 0.134,0.017 0.125,0.03 0.114,0.041 0.103,0.053 0.09,0.062 0.075,0.067 0.06,0.074 0.044,0.077 0.027,0.077 0.01,0.077 -0.007,0.074 -0.022,0.067 -0.037,0.062 -0.05,0.053 -0.062,0.041 -0.073,0.03 -0.082,0.017 -0.088,0.002 c -0.006,-0.016 -0.009,-0.031 -0.009,-0.049 0,-0.016 0.003,-0.033 0.009,-0.048 0.006,-0.014 0.015,-0.028 0.026,-0.039 0.012,-0.012 0.025,-0.02 0.04,-0.026 0.015,-0.007 0.032,-0.01 0.049,-0.01 m 0,0.282 C 0.049,0.112 0.07,0.108 0.09,0.1 0.11,0.092 0.127,0.08 0.142,0.066 0.156,0.052 0.167,0.035 0.176,0.016 0.185,-0.004 0.189,-0.024 0.189,-0.047 0.189,-0.068 0.185,-0.089 0.176,-0.108 0.167,-0.127 0.156,-0.144 0.142,-0.158 0.127,-0.173 0.11,-0.185 0.09,-0.192 0.07,-0.201 0.049,-0.205 0.027,-0.205 c -0.023,0 -0.044,0.004 -0.064,0.013 -0.02,0.007 -0.037,0.019 -0.052,0.034 -0.014,0.014 -0.026,0.031 -0.034,0.05 -0.008,0.019 -0.013,0.04 -0.013,0.061 0,0.023 0.005,0.043 0.013,0.063 0.008,0.019 0.02,0.036 0.034,0.05 0.015,0.014 0.032,0.026 0.052,0.034 0.02,0.008 0.041,0.012 0.064,0.012 m -2.406,1.406 c 0.07,0 0.17,-0.014 0.247,-0.044 L -2.239,1.146 c -0.074,0.03 -0.147,0.041 -0.217,0.041 -0.228,0 -0.341,-0.148 -0.341,-0.412 V -0.12 H -3.145 V 1.478 H -2.8 V 1.283 c 0.09,0.141 0.22,0.235 0.421,0.235 M -3.582,1.159 H -4.15 V 0.437 c 0,-0.16 0.056,-0.267 0.23,-0.267 0.09,0 0.204,0.03 0.308,0.091 l 0.1,-0.298 c -0.11,-0.077 -0.284,-0.123 -0.434,-0.123 -0.411,0 -0.555,0.22 -0.555,0.591 v 0.728 h -0.325 v 0.319 h 0.325 V 1.962 H -4.15 V 1.478 h 0.568 z m -1.67,-0.09 c -0.097,0.061 -0.294,0.137 -0.498,0.137 -0.191,0 -0.305,-0.07 -0.305,-0.186 0,-0.108 0.121,-0.138 0.271,-0.158 L -5.62,0.839 c 0.348,-0.05 0.558,-0.197 0.558,-0.479 0,-0.303 -0.267,-0.52 -0.729,-0.52 -0.26,0 -0.501,0.066 -0.691,0.207 l 0.164,0.27 c 0.116,-0.089 0.29,-0.167 0.531,-0.167 0.237,0 0.364,0.071 0.364,0.194 0,0.091 -0.09,0.14 -0.281,0.167 l -0.163,0.023 c -0.358,0.051 -0.552,0.211 -0.552,0.472 0,0.317 0.261,0.512 0.665,0.512 0.254,0 0.485,-0.058 0.652,-0.168 z M -7.906,0.818 c 0.037,0.231 0.177,0.388 0.425,0.388 0.223,0 0.367,-0.14 0.404,-0.388 z m 1.19,-0.139 c -0.004,0.497 -0.311,0.839 -0.759,0.839 -0.468,0 -0.795,-0.342 -0.795,-0.839 0,-0.509 0.341,-0.839 0.818,-0.839 0.241,0 0.462,0.059 0.656,0.223 L -6.967,0.32 C -7.101,0.214 -7.271,0.153 -7.431,0.153 c -0.224,0 -0.428,0.104 -0.478,0.392 h 1.186 c 0.003,0.043 0.007,0.087 0.007,0.134 M -1.17,1.19 C -1.241,1.19 -1.308,1.178 -1.369,1.153 -1.43,1.128 -1.482,1.093 -1.527,1.048 -1.571,1.003 -1.606,0.949 -1.632,0.886 -1.658,0.823 -1.67,0.754 -1.67,0.679 c 0,-0.076 0.012,-0.146 0.038,-0.208 0.026,-0.063 0.061,-0.117 0.105,-0.162 0.045,-0.045 0.097,-0.08 0.158,-0.105 0.061,-0.025 0.128,-0.038 0.199,-0.038 0.071,0 0.137,0.013 0.198,0.038 0.062,0.025 0.115,0.06 0.16,0.105 0.045,0.045 0.08,0.099 0.106,0.162 0.025,0.062 0.038,0.132 0.038,0.208 0,0.075 -0.013,0.144 -0.038,0.207 -0.026,0.063 -0.061,0.117 -0.106,0.162 -0.045,0.045 -0.098,0.08 -0.16,0.105 C -1.033,1.178 -1.099,1.19 -1.17,1.19 m 0,0.329 c 0.124,0 0.238,-0.021 0.343,-0.064 0.105,-0.043 0.196,-0.101 0.272,-0.177 0.077,-0.075 0.138,-0.164 0.18,-0.266 0.044,-0.103 0.066,-0.213 0.066,-0.333 0,-0.12 -0.022,-0.232 -0.066,-0.334 -0.042,-0.103 -0.103,-0.192 -0.18,-0.267 -0.076,-0.074 -0.167,-0.134 -0.272,-0.177 -0.105,-0.042 -0.219,-0.063 -0.343,-0.063 -0.123,0 -0.238,0.021 -0.343,0.063 -0.105,0.043 -0.195,0.103 -0.272,0.177 -0.076,0.075 -0.136,0.164 -0.179,0.267 -0.043,0.102 -0.065,0.214 -0.065,0.334 0,0.12 0.022,0.23 0.065,0.333 0.043,0.102 0.103,0.191 0.179,0.266 0.077,0.076 0.167,0.134 0.272,0.177 0.105,0.043 0.22,0.064 0.343,0.064 m -8.731,-0.84 c 0,0.28 0.184,0.51 0.484,0.51 0.288,0 0.482,-0.22 0.482,-0.51 0,-0.291 -0.194,-0.512 -0.482,-0.512 -0.3,0 -0.484,0.23 -0.484,0.512 m 1.294,0 V 1.478 H -8.955 V 1.283 c -0.11,0.144 -0.277,0.235 -0.505,0.235 -0.448,0 -0.798,-0.352 -0.798,-0.839 0,-0.489 0.35,-0.839 0.798,-0.839 0.228,0 0.395,0.09 0.505,0.233 V -0.12 h 0.348 z m -1.959,-0.799 v 1.002 c 0,0.378 -0.241,0.632 -0.628,0.636 -0.204,0.003 -0.415,-0.061 -0.562,-0.285 -0.11,0.177 -0.284,0.285 -0.528,0.285 -0.171,0 -0.338,-0.051 -0.468,-0.238 V 1.478 H -13.1 V -0.12 h 0.351 v 0.886 c 0,0.277 0.154,0.423 0.392,0.423 0.23,0 0.347,-0.15 0.347,-0.42 V -0.12 h 0.351 v 0.886 c 0,0.277 0.16,0.423 0.391,0.423 0.237,0 0.351,-0.15 0.351,-0.42 V -0.12 Z" /></g><path
           inkscape:connector-curvature="0"
           id="path892"
           style="fill:#736fbe;fill-opacity:1;fill-rule:nonzero;stroke:none"
           d="M 105.141,108.216 H 99.87 v 9.473 h 5.271 z" /><g
           transform="translate(100.2041,112.9522)"
           id="g894"><path
             inkscape:connector-curvature="0"
             id="path896"
             style="fill:#e71b25;fill-opacity:1;fill-rule:nonzero;stroke:none"
             d="M 0,0 C 0,1.922 0.9,3.633 2.301,4.736 1.276,5.543 -0.017,6.024 -1.422,6.024 -4.749,6.024 -7.446,3.327 -7.446,0 c 0,-3.327 2.697,-6.024 6.024,-6.024 1.405,0 2.698,0.48 3.723,1.288 C 0.9,-3.634 0,-1.922 0,0" /></g><g
           transform="translate(112.0645,109.2188)"
           id="g898"><path
             inkscape:connector-curvature="0"
             id="path900"
             style="fill:#ffffff;fill-opacity:1;fill-rule:nonzero;stroke:none"
             d="m 0,0 v 0.233 h -0.061 l -0.07,-0.16 -0.071,0.16 H -0.263 V 0 h 0.043 v 0.177 l 0.066,-0.153 h 0.045 l 0.066,0.153 V 0 Z m -0.387,0 v 0.194 h 0.078 V 0.233 H -0.508 V 0.194 H -0.43 V 0 Z" /></g><g
           transform="translate(112.2524,112.9522)"
           id="g902"><path
             inkscape:connector-curvature="0"
             id="path904"
             style="fill:#31b0ea;fill-opacity:1;fill-rule:nonzero;stroke:none"
             d="m 0,0 c 0,-3.327 -2.697,-6.024 -6.024,-6.024 -1.406,0 -2.699,0.48 -3.724,1.288 1.402,1.102 2.302,2.814 2.302,4.736 0,1.922 -0.9,3.633 -2.302,4.736 1.025,0.807 2.318,1.288 3.724,1.288 C -2.697,6.024 0,3.327 0,0" /></g><path
           inkscape:connector-curvature="0"
           id="path906"
           style="fill:#28336f;fill-opacity:1;fill-rule:nonzero;stroke:none"
           d="m 177.701,117.376 h 27.779 v 2.536 h -27.779 z" /><path
           inkscape:connector-curvature="0"
           id="path908"
           style="fill:#f5ae19;fill-opacity:1;fill-rule:nonzero;stroke:none"
           d="m 177.701,102.532 h 27.779 v 2.536 h -27.779 z" /><g
           transform="translate(188.3906,109.3389)"
           id="g910"><path
             inkscape:connector-curvature="0"
             id="path912"
             style="fill:#28336f;fill-opacity:1;fill-rule:nonzero;stroke:none"
             d="M 0,0 1.103,6.479 H 2.87 L 1.767,0 Z" /></g><g
           transform="translate(196.5615,115.6582)"
           id="g914"><path
             inkscape:connector-curvature="0"
             id="path916"
             style="fill:#28336f;fill-opacity:1;fill-rule:nonzero;stroke:none"
             d="m 0,0 c -0.353,0.132 -0.899,0.273 -1.581,0.273 -1.746,0 -2.977,-0.879 -2.988,-2.141 -0.01,-0.928 0.88,-1.446 1.546,-1.756 0.689,-0.318 0.92,-0.522 0.917,-0.804 -0.006,-0.434 -0.549,-0.634 -1.056,-0.634 -0.708,0 -1.081,0.099 -1.663,0.34 l -0.23,0.107 -0.242,-1.454 c 0.408,-0.181 1.169,-0.339 1.965,-0.347 1.858,0 3.062,0.869 3.074,2.215 0.008,0.736 -0.463,1.298 -1.479,1.761 -0.621,0.297 -0.995,0.498 -0.995,0.802 0,0.269 0.323,0.56 1.011,0.56 0.581,0.006 0.998,-0.12 1.324,-0.25 l 0.158,-0.074 z" /></g><g
           transform="translate(198.9141,111.6368)"
           id="g918"><path
             inkscape:connector-curvature="0"
             id="path920"
             style="fill:#28336f;fill-opacity:1;fill-rule:nonzero;stroke:none"
             d="M 0,0 C 0.144,0.373 0.702,1.812 0.702,1.812 0.691,1.795 0.849,2.186 0.938,2.43 L 1.057,1.871 c 0,0 0.337,-1.551 0.407,-1.871 z M 2.177,4.177 H 0.812 C 0.391,4.177 0.074,4.06 -0.114,3.638 l -2.623,-5.939 h 1.858 c 0,0 0.301,0.799 0.366,0.976 0.207,0 2.007,-0.005 2.267,-0.005 0.053,-0.226 0.211,-0.971 0.211,-0.971 h 1.642 z" /></g><g
           transform="translate(186.9229,115.8331)"
           id="g922"><path
             inkscape:connector-curvature="0"
             id="path924"
             style="fill:#28336f;fill-opacity:1;fill-rule:nonzero;stroke:none"
             d="m 0,0 h 1.875 l -2.783,-6.47 h -1.866 l -1.573,5.628 c -0.544,0.3 -1.166,0.543 -1.855,0.711 l 0.023,0.134 h 2.848 c 0.383,-0.015 0.694,-0.139 0.801,-0.547 l 0.617,-2.978 0.187,-0.897 z" /></g><g
           transform="translate(193.8506,107.254)"
           id="g926"><path
             inkscape:connector-curvature="0"
             id="path928"
             style="fill:#28336f;fill-opacity:1;fill-rule:evenodd;stroke:none"
             d="m 0,0 h -0.721 v 0.588 h 0.765 v 0.201 h -1.009 v -1.862 h 1.049 v 0.204 h -0.805 v 0.671 H 0 Z" /></g><path
           inkscape:connector-curvature="0"
           id="path930"
           style="fill:#28336f;fill-opacity:1;fill-rule:evenodd;stroke:none"
           d="m 194.285,106.181 h 0.244 v 1.963 h -0.244 z" /><g
           transform="translate(195.1182,106.9805)"
           id="g932"><path
             inkscape:connector-curvature="0"
             id="path934"
             style="fill:#28336f;fill-opacity:1;fill-rule:evenodd;stroke:none"
             d="M 0,0 C 0.021,0.169 0.125,0.393 0.372,0.393 0.646,0.393 0.714,0.149 0.709,0 Z m 0.938,-0.173 c 0.005,0.027 0.006,0.064 0.006,0.112 0,0.248 -0.11,0.627 -0.553,0.627 -0.388,0 -0.623,-0.317 -0.623,-0.717 0,-0.404 0.246,-0.677 0.656,-0.677 0.212,0 0.36,0.049 0.447,0.084 L 0.827,-0.568 C 0.737,-0.607 0.631,-0.639 0.456,-0.639 0.21,-0.639 0.003,-0.504 0,-0.173 Z" /></g><g
           transform="translate(197.3174,106.4122)"
           id="g936"><path
             inkscape:connector-curvature="0"
             id="path938"
             style="fill:#28336f;fill-opacity:1;fill-rule:evenodd;stroke:none"
             d="m 0,0 c -0.065,-0.03 -0.157,-0.062 -0.292,-0.062 -0.267,0 -0.464,0.191 -0.464,0.497 0,0.279 0.163,0.506 0.471,0.506 0.135,0 0.223,-0.032 0.28,-0.064 l 0.056,0.185 c -0.067,0.038 -0.194,0.073 -0.336,0.073 -0.433,0 -0.72,-0.303 -0.72,-0.713 0,-0.408 0.263,-0.682 0.667,-0.682 0.179,0 0.32,0.049 0.385,0.078 z" /></g><g
           transform="translate(197.7822,107.7676)"
           id="g940"><path
             inkscape:connector-curvature="0"
             id="path942"
             style="fill:#28336f;fill-opacity:1;fill-rule:evenodd;stroke:none"
             d="M 0,0 V -0.248 H -0.207 V -0.435 H 0 v -0.729 c 0,-0.154 0.03,-0.274 0.096,-0.35 0.054,-0.063 0.148,-0.101 0.263,-0.101 0.094,0 0.166,0.017 0.213,0.034 L 0.566,-1.395 C 0.525,-1.408 0.489,-1.412 0.419,-1.412 c -0.133,0 -0.182,0.094 -0.182,0.26 v 0.717 h 0.348 v 0.187 H 0.237 v 0.319 z" /></g><g
           transform="translate(198.6875,106.1807)"
           id="g944"><path
             inkscape:connector-curvature="0"
             id="path946"
             style="fill:#28336f;fill-opacity:1;fill-rule:evenodd;stroke:none"
             d="m 0,0 h 0.242 v 0.716 c 0,0.038 0.002,0.078 0.01,0.112 0.036,0.183 0.152,0.309 0.325,0.309 0.032,0 0.058,0 0.085,-0.006 V 1.358 C 0.637,1.363 0.618,1.366 0.594,1.366 0.432,1.366 0.283,1.254 0.22,1.073 H 0.212 L 0.2,1.339 H -0.011 C -0.002,1.214 0,1.078 0,0.922 Z" /></g><g
           transform="translate(200.1689,107.3643)"
           id="g948"><path
             inkscape:connector-curvature="0"
             id="path950"
             style="fill:#28336f;fill-opacity:1;fill-rule:evenodd;stroke:none"
             d="m 0,0 c 0.287,0 0.4,-0.285 0.4,-0.508 0,-0.303 -0.175,-0.521 -0.41,-0.521 -0.232,0 -0.396,0.221 -0.396,0.511 C -0.406,-0.265 -0.284,0 0,0 m 0.005,0.183 c -0.367,0 -0.664,-0.264 -0.664,-0.707 0,-0.423 0.285,-0.688 0.643,-0.688 0.322,0 0.664,0.217 0.664,0.71 0,0.405 -0.26,0.685 -0.643,0.685" /></g><g
           transform="translate(201.1699,106.1807)"
           id="g952"><path
             inkscape:connector-curvature="0"
             id="path954"
             style="fill:#28336f;fill-opacity:1;fill-rule:evenodd;stroke:none"
             d="m 0,0 h 0.244 v 0.807 c 0,0.041 0.003,0.082 0.014,0.112 0.047,0.136 0.173,0.249 0.33,0.249 0.227,0 0.308,-0.18 0.308,-0.395 V 0 h 0.245 v 0.798 c 0,0.457 -0.293,0.568 -0.476,0.568 -0.22,0 -0.376,-0.125 -0.442,-0.248 H 0.218 L 0.206,1.339 H -0.01 C -0.001,1.227 0,1.118 0,0.976 Z" /></g><path
           inkscape:connector-curvature="0"
           id="path956"
           style="fill:#f5ae19;fill-opacity:1;fill-rule:nonzero;stroke:none"
           d="m 133.081,105.032 h 27.934 v -2.5 h -27.934 z" /><path
           inkscape:connector-curvature="0"
           id="path958"
           style="fill:#28336f;fill-opacity:1;fill-rule:nonzero;stroke:none"
           d="m 133.081,119.913 h 27.934 v -2.501 h -27.934 z" /><g
           transform="translate(146.791,114.6456)"
           id="g960"><path
             inkscape:connector-curvature="0"
             id="path962"
             style="fill:#28336f;fill-opacity:1;fill-rule:nonzero;stroke:none"
             d="M 0,0 -1.473,-6.882 H -3.246 L -1.773,0 Z m 7.502,-4.435 0.939,2.59 0.533,-2.59 z m 1.986,-2.447 h 1.65 L 9.701,0 H 8.176 C 7.845,0.004 7.543,-0.192 7.413,-0.497 L 4.735,-6.882 h 1.863 l 0.372,1.028 h 2.288 z m -4.646,2.253 c 0,1.809 -2.519,1.915 -2.501,2.731 0,0.249 0.248,0.514 0.763,0.586 0.601,0.054 1.207,-0.05 1.755,-0.302 l 0.32,1.454 C 4.646,0.041 4.081,0.144 3.512,0.142 1.756,0.142 0.514,-0.799 0.496,-2.129 0.479,-3.122 1.383,-3.672 2.057,-4.009 2.731,-4.346 2.979,-4.559 2.979,-4.86 2.979,-5.321 2.43,-5.534 1.915,-5.534 1.277,-5.551 0.647,-5.397 0.089,-5.091 L -0.23,-6.598 C 0.177,-6.793 0.957,-6.953 1.756,-6.971 3.6,-6.988 4.824,-6.065 4.842,-4.629 M -2.536,0 -5.427,-6.882 h -1.88 l -1.419,5.498 c -0.089,0.337 -0.16,0.461 -0.426,0.604 -0.56,0.263 -1.149,0.46 -1.756,0.585 L -10.872,0 h 3.033 c 0.412,0.004 0.762,-0.301 0.816,-0.71 l 0.744,-3.99 1.845,4.682 h 1.898 z" /></g><path
           inkscape:connector-curvature="0"
           id="path964"
           style="fill:#231f20;fill-opacity:1;fill-rule:nonzero;stroke:none"
           d="M 71.923,102.532 H 44.002 v 17.674 h 27.921 z" /><g
           transform="translate(67.3232,104.1075)"
           id="g966"><path
             inkscape:connector-curvature="0"
             id="path968"
             style="fill:#ffffff;fill-opacity:1;fill-rule:nonzero;stroke:none"
             d="m 0,0 v -0.039 h 0.036 c 0.008,0 0.015,0.002 0.02,0.005 0.005,0.003 0.007,0.008 0.007,0.014 0,0.007 -0.002,0.012 -0.007,0.015 C 0.051,-0.001 0.044,0 0.036,0 Z M 0.037,0.028 C 0.056,0.028 0.07,0.023 0.081,0.016 0.091,0.007 0.096,-0.005 0.096,-0.02 0.096,-0.031 0.092,-0.042 0.083,-0.05 0.075,-0.058 0.064,-0.062 0.049,-0.064 L 0.097,-0.12 H 0.059 L 0.014,-0.064 H 0 V -0.12 h -0.032 v 0.148 z m -0.01,-0.199 c 0.017,0 0.034,0.004 0.048,0.01 0.015,0.007 0.028,0.015 0.039,0.027 0.011,0.011 0.02,0.024 0.027,0.039 0.006,0.015 0.009,0.032 0.009,0.048 0,0.018 -0.003,0.033 -0.009,0.049 C 0.134,0.017 0.125,0.03 0.114,0.041 0.103,0.053 0.09,0.062 0.075,0.067 0.061,0.074 0.044,0.077 0.027,0.077 0.01,0.077 -0.006,0.074 -0.021,0.067 -0.037,0.062 -0.05,0.053 -0.061,0.041 -0.072,0.03 -0.081,0.017 -0.087,0.002 c -0.007,-0.016 -0.01,-0.031 -0.01,-0.049 0,-0.016 0.003,-0.033 0.01,-0.048 0.006,-0.015 0.015,-0.028 0.026,-0.039 0.011,-0.012 0.024,-0.02 0.04,-0.027 0.015,-0.006 0.031,-0.01 0.048,-0.01 m 0,0.283 C 0.05,0.112 0.07,0.108 0.09,0.1 0.11,0.092 0.127,0.08 0.142,0.065 0.156,0.052 0.168,0.034 0.176,0.016 0.185,-0.004 0.189,-0.024 0.189,-0.047 0.189,-0.068 0.185,-0.089 0.176,-0.108 0.168,-0.127 0.156,-0.145 0.142,-0.158 0.127,-0.173 0.11,-0.185 0.09,-0.193 0.07,-0.201 0.05,-0.205 0.027,-0.205 c -0.023,0 -0.044,0.004 -0.064,0.012 -0.02,0.008 -0.037,0.02 -0.051,0.035 -0.015,0.013 -0.027,0.031 -0.035,0.05 -0.008,0.019 -0.013,0.04 -0.013,0.061 0,0.023 0.005,0.043 0.013,0.063 0.008,0.018 0.02,0.036 0.035,0.049 0.014,0.015 0.031,0.027 0.051,0.035 0.02,0.008 0.041,0.012 0.064,0.012 m -14.923,0.569 c 0,0.281 0.184,0.511 0.485,0.511 0.288,0 0.482,-0.22 0.482,-0.511 0,-0.291 -0.194,-0.513 -0.482,-0.513 -0.301,0 -0.485,0.231 -0.485,0.513 m 1.295,0 V 1.48 h -0.348 V 1.286 c -0.111,0.144 -0.278,0.235 -0.506,0.235 -0.448,0 -0.799,-0.352 -0.799,-0.84 0,-0.49 0.351,-0.84 0.799,-0.84 0.228,0 0.395,0.09 0.506,0.234 v -0.194 h 0.348 z m 11.753,0 c 0,0.281 0.184,0.511 0.485,0.511 0.288,0 0.482,-0.22 0.482,-0.511 0,-0.291 -0.194,-0.513 -0.482,-0.513 -0.301,0 -0.485,0.231 -0.485,0.513 m 1.295,0 V 2.123 H -0.901 V 1.286 c -0.11,0.144 -0.278,0.235 -0.505,0.235 -0.449,0 -0.8,-0.352 -0.8,-0.84 0,-0.49 0.351,-0.84 0.8,-0.84 0.227,0 0.395,0.09 0.505,0.234 v -0.194 h 0.348 z m -8.731,0.528 c 0.224,0 0.368,-0.141 0.405,-0.388 h -0.83 c 0.037,0.231 0.177,0.388 0.425,0.388 m 0.007,0.312 c -0.469,0 -0.797,-0.342 -0.797,-0.84 0,-0.509 0.342,-0.84 0.82,-0.84 0.241,0 0.462,0.059 0.656,0.223 L -8.769,0.322 C -8.902,0.215 -9.073,0.155 -9.234,0.155 c -0.224,0 -0.428,0.104 -0.478,0.392 h 1.188 c 0.003,0.043 0.006,0.087 0.006,0.134 -0.003,0.498 -0.311,0.84 -0.759,0.84 m 4.199,-0.84 c 0,0.281 0.184,0.511 0.486,0.511 0.287,0 0.482,-0.22 0.482,-0.511 0,-0.291 -0.195,-0.513 -0.482,-0.513 -0.302,0 -0.486,0.231 -0.486,0.513 m 1.296,0 V 1.48 H -4.13 V 1.286 c -0.111,0.144 -0.278,0.235 -0.506,0.235 -0.448,0 -0.8,-0.352 -0.8,-0.84 0,-0.49 0.352,-0.84 0.8,-0.84 0.228,0 0.395,0.09 0.506,0.234 v -0.194 h 0.348 z m -3.26,0 c 0,-0.486 0.338,-0.84 0.854,-0.84 0.24,0 0.401,0.053 0.575,0.19 L -5.78,0.312 C -5.911,0.219 -6.048,0.168 -6.199,0.168 c -0.278,0.004 -0.482,0.205 -0.482,0.513 0,0.307 0.204,0.508 0.482,0.511 0.151,0 0.288,-0.049 0.419,-0.143 l 0.167,0.281 c -0.174,0.137 -0.335,0.191 -0.575,0.191 -0.516,0 -0.854,-0.355 -0.854,-0.84 m 4.484,0.84 c -0.2,0 -0.331,-0.094 -0.421,-0.235 V 1.48 h -0.345 v -1.599 h 0.348 v 0.896 c 0,0.265 0.114,0.412 0.341,0.412 0.071,0 0.144,-0.01 0.218,-0.04 l 0.107,0.328 c -0.077,0.03 -0.177,0.044 -0.248,0.044 m -9.323,-0.167 c -0.167,0.11 -0.398,0.167 -0.653,0.167 -0.404,0 -0.666,-0.195 -0.666,-0.512 0,-0.262 0.195,-0.422 0.553,-0.473 l 0.164,-0.023 c 0.191,-0.027 0.281,-0.076 0.281,-0.167 0,-0.124 -0.128,-0.195 -0.365,-0.195 -0.241,0 -0.415,0.078 -0.532,0.168 l -0.164,-0.271 c 0.191,-0.141 0.431,-0.207 0.693,-0.207 0.462,0 0.729,0.217 0.729,0.521 0,0.282 -0.211,0.429 -0.559,0.479 l -0.163,0.023 c -0.151,0.021 -0.272,0.051 -0.272,0.157 0,0.118 0.114,0.188 0.305,0.188 0.204,0 0.401,-0.077 0.498,-0.137 z m 4.488,0.167 c -0.201,0 -0.332,-0.094 -0.422,-0.235 V 1.48 H -8.16 v -1.599 h 0.348 v 0.896 c 0,0.265 0.114,0.412 0.342,0.412 0.07,0 0.144,-0.01 0.217,-0.04 l 0.107,0.328 c -0.077,0.03 -0.177,0.044 -0.247,0.044 M -10.362,1.48 h -0.569 v 0.486 h -0.351 V 1.48 h -0.324 V 1.162 h 0.324 V 0.433 c 0,-0.371 0.144,-0.592 0.555,-0.592 0.151,0 0.325,0.047 0.435,0.123 l -0.1,0.298 c -0.104,-0.06 -0.217,-0.09 -0.308,-0.09 -0.174,0 -0.231,0.107 -0.231,0.267 v 0.723 h 0.569 z m -5.2,-1.599 v 1.004 c 0,0.378 -0.241,0.633 -0.629,0.636 -0.205,0.002 -0.415,-0.061 -0.562,-0.285 -0.111,0.177 -0.285,0.285 -0.529,0.285 -0.171,0 -0.338,-0.05 -0.469,-0.238 V 1.48 h -0.348 v -1.599 h 0.351 v 0.887 c 0,0.277 0.154,0.424 0.392,0.424 0.231,0 0.348,-0.15 0.348,-0.421 v -0.89 h 0.351 v 0.887 c 0,0.277 0.161,0.424 0.392,0.424 0.238,0 0.351,-0.15 0.351,-0.421 v -0.89 z" /></g><path
           inkscape:connector-curvature="0"
           id="path970"
           style="fill:#f1511b;fill-opacity:1;fill-rule:nonzero;stroke:none"
           d="m 60.598,108.306 h -5.271 v 9.473 h 5.271 z" /><g
           transform="translate(55.6611,113.042)"
           id="g972"><path
             inkscape:connector-curvature="0"
             id="path974"
             style="fill:#e71b25;fill-opacity:1;fill-rule:nonzero;stroke:none"
             d="M 0,0 C 0,1.922 0.9,3.634 2.301,4.736 1.276,5.543 -0.017,6.024 -1.422,6.024 -4.749,6.024 -7.446,3.327 -7.446,0 c 0,-3.327 2.697,-6.024 6.024,-6.024 1.405,0 2.698,0.481 3.723,1.288 C 0.9,-3.633 0,-1.922 0,0" /></g><g
           transform="translate(67.5215,109.3086)"
           id="g976"><path
             inkscape:connector-curvature="0"
             id="path978"
             style="fill:#ffffff;fill-opacity:1;fill-rule:nonzero;stroke:none"
             d="M 0,0 V 0.234 H -0.061 L -0.131,0.073 -0.202,0.234 H -0.263 V 0 h 0.044 v 0.177 l 0.066,-0.153 h 0.044 l 0.066,0.153 V 0 Z m -0.387,0 v 0.194 h 0.078 V 0.233 H -0.507 V 0.194 h 0.078 V 0 Z" /></g><g
           transform="translate(67.7095,113.042)"
           id="g980"><path
             inkscape:connector-curvature="0"
             id="path982"
             style="fill:#f79410;fill-opacity:1;fill-rule:nonzero;stroke:none"
             d="m 0,0 c 0,-3.327 -2.697,-6.024 -6.024,-6.024 -1.405,0 -2.698,0.481 -3.723,1.288 1.401,1.103 2.301,2.814 2.301,4.736 0,1.922 -0.9,3.634 -2.301,4.736 1.025,0.807 2.318,1.288 3.723,1.288 C -2.697,6.024 0,3.327 0,0" /></g></g></g></g></svg>
